<?xml version="1.0" encoding="UTF-8"?>
<svg width="346px" height="269px" viewBox="0 0 346 269" version="1.1" xmlns="http://www.w3.org/2000/svg" xmlns:xlink="http://www.w3.org/1999/xlink">
    <!-- Generator: Sketch 61.2 (89653) - https://sketch.com -->
    <title>Group 15</title>
    <desc>Created with Sketch.</desc>
    <g id="Page-1" stroke="none" stroke-width="1" fill="none" fill-rule="evenodd">
        <g id="Accueil" transform="translate(0.000000, -185.000000)">
            <g id="Group-15" transform="translate(0.000000, 186.000000)">
                <polyline id="Stroke-1" stroke="#FFFFFF" stroke-width="2" points="178 267.2499 178 14.9999 94 14.9999 94 267.2499"></polyline>
                <polyline id="Stroke-3" stroke="#FFFFFF" stroke-width="2" points="263 267.2499 263 -0.0001 178 -0.0001 178 267.2499"></polyline>
                <polyline id="Stroke-5" stroke="#FFFFFF" stroke-width="2" points="346 14.9999 263 14.9999 263 267.2499"></polyline>
                <polyline id="Stroke-7" stroke="#FFFFFF" stroke-width="2" points="346 39.9999 61 39.9999 61 124.9999 346 124.9999"></polyline>
                <polyline id="Stroke-9" stroke="#FFFFFF" stroke-width="2" points="0 209.9999 308 209.9999 308 124.9999 0 124.9999"></polyline>
                <polyline id="Stroke-11" stroke="#FFFFFF" stroke-width="2" points="346 192.9999 94 192.9999 94 267.2499"></polyline>
                <path d="M238.9717,236.9443 C230.7947,236.9443 222.6747,238.8353 214.6347,242.6093 C206.5887,246.3933 198.5417,250.4963 190.5017,254.9543 C182.4547,259.3973 174.3487,263.4523 166.1657,267.0903 C166.0337,267.1483 165.9027,267.2073 165.7717,267.2633 L119.5037,267.2093 C116.1387,265.5383 113.0137,263.5423 110.1327,261.2153 C105.7677,257.7213 102.1597,253.5353 99.2947,248.6783 C96.4307,243.8193 94.9997,238.5573 94.9997,232.8893 C94.9997,222.6473 98.4047,212.9383 105.2237,203.7633 C112.0367,194.5923 120.1537,186.1573 129.5607,178.4773 C138.9647,170.7843 148.5117,163.8403 158.1927,157.6343 C167.8697,151.4333 175.5757,146.1713 181.3017,141.8493 C182.6657,140.7773 184.3697,139.1573 186.4167,137.0003 C188.4607,134.8423 189.4857,133.4933 189.4857,132.9523 C190.2987,128.9043 189.5477,124.5923 187.2307,120.0003 C184.9127,115.4183 181.7717,111.1693 177.8267,107.2603 C173.8657,103.3513 169.5037,100.0383 164.7347,97.3433 C159.9627,94.6523 155.6677,93.2953 151.8497,93.2953 C147.4877,93.2953 143.6737,94.5133 140.3987,96.9413 C137.1267,99.3653 133.9857,101.9943 130.9917,104.8253 C127.9897,107.6623 124.8517,110.2913 121.5837,112.7193 C118.3127,115.1513 114.6277,116.3613 110.5397,116.3613 C102.0857,115.5533 100.1717,112.4523 104.8137,107.0553 C109.7227,101.3913 113.4007,96.9413 115.8547,93.6973 C120.4907,90.4653 126.0127,86.3553 132.4257,81.3633 C138.8247,76.3723 145.7177,71.5853 153.0767,66.9933 C160.4397,62.4143 167.9357,58.4323 175.5757,55.0613 C183.2017,51.6893 190.5727,50.0003 197.6617,50.0003 C205.0287,50.0003 211.7037,51.5543 217.7027,54.6553 C223.6997,57.7563 229.2207,61.8033 234.2697,66.7923 C239.3117,71.7903 243.8837,77.3813 247.9757,83.5833 C252.0607,89.7923 255.7427,96.1293 259.0137,102.6053 C260.1007,104.2253 262.1477,107.9333 265.1527,113.7363 C268.1467,119.5353 271.6247,126.3443 275.5797,134.1623 C279.5317,141.9913 283.6897,150.2883 288.0587,159.0533 C292.4127,167.8183 296.5047,176.1193 300.3267,183.9333 C304.1377,191.7583 307.4837,198.5753 310.3477,204.3743 C313.2087,210.1713 315.1867,214.0173 316.2767,215.8973 C318.1837,219.1433 319.8187,221.7073 321.1887,223.5903 C322.5457,225.4803 323.9097,227.3713 325.2777,229.2513 C326.6377,231.1453 327.7277,232.4873 328.5477,233.3053 C329.9117,235.1863 331.6167,236.2713 333.6637,236.5423 C335.7077,236.8093 337.6817,236.9443 339.5967,236.9443 C341.7737,236.9443 343.7477,237.2123 345.5257,237.7533 C345.6807,237.8003 345.8317,237.8553 345.9777,237.9163 L345.9927,245.8903 C339.0247,254.8743 330.9947,261.9913 321.9107,267.2523 L267.6597,267.2413 C265.2107,264.0373 262.9457,260.6153 260.8577,256.9683 C257.9957,251.9843 254.9247,247.3953 251.6507,243.2193 C248.3827,239.0333 244.1507,236.9443 238.9717,236.9443 M152.6697,200.1223 C152.6697,204.9813 153.8267,209.4273 156.1447,213.4793 C158.4587,217.5203 161.5267,220.9653 165.3517,223.7953 C169.1667,226.6293 173.3257,228.8483 177.8267,230.4723 C182.3257,232.0853 186.8867,232.8893 191.5257,232.8893 C194.2467,232.8893 197.6617,232.4873 201.7537,231.6823 C205.8417,230.8753 209.7307,229.5943 213.4087,227.8363 C217.0927,226.0883 220.2207,223.9303 222.8157,221.3673 C225.4027,218.8033 226.7027,215.7753 226.7027,212.2583 C226.7027,211.7203 226.6297,210.9893 226.4997,210.0353 C226.3607,209.0943 226.2927,208.4843 226.2927,208.2173 L205.8417,167.7463 C202.2927,167.4893 200.1167,167.3433 199.2987,167.3433 C194.6577,167.3433 189.6887,168.0233 184.3697,169.3693 C179.0507,170.7213 174.0017,172.7483 169.2367,175.4393 C164.4617,178.1343 160.5067,181.5753 157.3717,185.7513 C154.2377,189.9383 152.6697,194.7243 152.6697,200.1223" id="Fill-13" fill="#FFFFFF"></path>
            </g>
        </g>
    </g>
</svg>