<?xml version="1.0" encoding="utf-8"?>
<!-- Generator: Adobe Illustrator 21.0.2, SVG Export Plug-In . SVG Version: 6.00 Build 0)  -->
<svg version="1.1" id="Calque_1" xmlns="http://www.w3.org/2000/svg" xmlns:xlink="http://www.w3.org/1999/xlink" x="0px" y="0px"
	 viewBox="0 0 145 159" style="enable-background:new 0 0 145 159;" xml:space="preserve">
<style type="text/css">
	.st0{fill:#DAFAFF;stroke:#2DC0D7;}
	.st1{fill:none;stroke:#FFC400;}
	.st2{fill:#F5A623;}
	.st3{fill:#FFE76E;}
	.st4{fill:#B0D8DE;}
	.st5{fill:#FFF000;}
	.st6{fill:#FFC400;}
	.st7{fill:#4FD0E4;}
	.st8{fill:#2DC0D7;}
</style>
<title>Group 6</title>
<desc>Created with Sketch.</desc>
<g id="Page-1">
	<g id="Accueil" transform="translate(-455.000000, -1143.000000)">
		<g id="Group-6" transform="translate(456.000000, 1144.000000)">
			<polygon id="Stroke-3" class="st0" points="49,157 96,157 96,0 49,0 			"/>
			<polygon id="Stroke-6" class="st1" points="0,59.4 143.2,59.4 143.2,20.7 0,20.7 			"/>
			<polygon id="Stroke-9" class="st1" points="0,137.4 143.2,137.4 143.2,98.7 0,98.7 			"/>
			<path id="Fill-8" class="st2" d="M17,44.5c0,0.7,0.2,1.3,0.5,1.8c0.3,0.6,0.7,1,1.2,1.4c0.5,0.4,1.1,0.7,1.7,0.9
				c0.6,0.2,1.2,0.3,1.9,0.3c0.4,0,0.8-0.1,1.4-0.2c0.6-0.1,1.1-0.3,1.6-0.5c0.5-0.2,0.9-0.5,1.3-0.9c0.3-0.4,0.5-0.8,0.5-1.3
				c0-0.1,0-0.2,0-0.3c0-0.1,0-0.2,0-0.2l-2.8-5.6c-0.5,0-0.8-0.1-0.9-0.1c-0.6,0-1.3,0.1-2,0.3c-0.7,0.2-1.4,0.5-2,0.8
				c-0.6,0.4-1.2,0.8-1.6,1.4C17.2,43.1,17,43.8,17,44.5 M25.1,49.6c-1,0.5-2,1-3,1.6c-1,0.6-2,1.1-3.1,1.6c-1,0.5-2.1,0.7-3.2,0.7
				c-0.6,0-1.3-0.1-2-0.4c-0.7-0.3-1.3-0.6-1.9-1.1c-0.5-0.4-1-1-1.4-1.6c-0.4-0.6-0.5-1.3-0.5-2c0-1.3,0.4-2.5,1.3-3.7
				c0.9-1.2,1.9-2.2,3.1-3.2c1.2-1,2.4-1.9,3.6-2.7c1.2-0.8,2.2-1.5,2.9-2c0.2-0.1,0.4-0.3,0.6-0.6c0.3-0.3,0.4-0.4,0.4-0.5
				c0.1-0.5,0-1.1-0.3-1.7c-0.3-0.6-0.7-1.1-1.2-1.6c-0.5-0.5-1-0.9-1.6-1.3c-0.6-0.3-1.1-0.5-1.6-0.5c-0.5,0-1,0.2-1.4,0.5
				c-0.4,0.3-0.8,0.6-1.2,1c-0.4,0.4-0.8,0.7-1.2,1c-0.4,0.3-0.9,0.5-1.4,0.5c-1.1-0.1-1.3-0.5-0.7-1.2c0.6-0.7,1.1-1.3,1.4-1.7
				c0.6-0.4,1.3-0.9,2.1-1.6c0.8-0.6,1.7-1.2,2.6-1.8c0.9-0.6,1.9-1.1,2.8-1.5c1-0.4,1.9-0.6,2.8-0.6c0.9,0,1.8,0.2,2.5,0.6
				c0.8,0.4,1.5,0.9,2.1,1.6c0.6,0.6,1.2,1.4,1.7,2.1c0.5,0.8,1,1.6,1.4,2.4c0.1,0.2,0.4,0.7,0.8,1.4c0.4,0.7,0.8,1.6,1.3,2.6
				c0.5,1,1,2.1,1.6,3.2c0.5,1.1,1.1,2.2,1.5,3.2c0.5,1,0.9,1.9,1.3,2.6c0.4,0.7,0.6,1.2,0.7,1.5c0.2,0.4,0.4,0.7,0.6,1
				c0.2,0.2,0.3,0.5,0.5,0.7c0.2,0.2,0.3,0.4,0.4,0.5c0.2,0.2,0.4,0.4,0.6,0.4c0.3,0,0.5,0.1,0.7,0.1c0.3,0,0.5,0,0.7,0.1
				c0.2,0.1,0.4,0.2,0.4,0.5c-1,1.4-2.2,2.6-3.6,3.3c-1.4,0.8-2.9,1.2-4.5,1.2c-0.8,0-1.4-0.3-1.8-0.8c-0.4-0.5-0.8-1.1-1.2-1.8
				c-0.4-0.6-0.7-1.2-1.2-1.8c-0.4-0.5-0.9-0.8-1.6-0.8C27.1,48.9,26.1,49.1,25.1,49.6z"/>
			<path id="Fill-8-Copy-7" class="st2" d="M16,124c0,0.7,0.2,1.4,0.5,2c0.3,0.6,0.8,1.1,1.4,1.6c0.6,0.4,1.2,0.8,1.9,1
				c0.7,0.2,1.3,0.4,2,0.4c0.4,0,0.9-0.1,1.5-0.2c0.6-0.1,1.2-0.3,1.7-0.6c0.5-0.3,1-0.6,1.4-1c0.4-0.4,0.6-0.9,0.6-1.4
				c0-0.1,0-0.2,0-0.3c0-0.1,0-0.2,0-0.3l-3-6.2c-0.5,0-0.9-0.1-1-0.1c-0.7,0-1.4,0.1-2.2,0.3c-0.8,0.2-1.5,0.5-2.2,0.9
				c-0.7,0.4-1.3,0.9-1.8,1.6C16.2,122.4,16,123.2,16,124 M25,130c-1.1,0.6-2.3,1.1-3.4,1.8c-1.1,0.6-2.3,1.2-3.4,1.8
				c-1.2,0.5-2.4,0.8-3.7,0.8c-0.7,0-1.4-0.1-2.2-0.4c-0.8-0.3-1.5-0.7-2.1-1.2c-0.6-0.5-1.1-1.1-1.5-1.8c-0.4-0.7-0.6-1.5-0.6-2.3
				c0-1.5,0.5-2.9,1.4-4.2c1-1.3,2.1-2.6,3.4-3.7c1.3-1.1,2.7-2.1,4.1-3c1.4-0.9,2.5-1.7,3.3-2.3c0.2-0.2,0.4-0.4,0.7-0.7
				c0.3-0.3,0.4-0.5,0.4-0.6c0.1-0.6,0-1.2-0.3-1.9c-0.3-0.7-0.8-1.3-1.3-1.9c-0.6-0.6-1.2-1-1.9-1.4c-0.7-0.4-1.3-0.6-1.8-0.6
				c-0.6,0-1.2,0.2-1.6,0.5c-0.5,0.4-0.9,0.7-1.3,1.1c-0.4,0.4-0.9,0.8-1.3,1.1c-0.5,0.4-1,0.5-1.6,0.5c-1.2-0.1-1.5-0.6-0.8-1.4
				c0.7-0.8,1.2-1.5,1.6-1.9c0.7-0.5,1.4-1.1,2.3-1.8c0.9-0.7,1.9-1.4,2.9-2.1c1-0.7,2.1-1.2,3.2-1.7c1.1-0.5,2.1-0.7,3.1-0.7
				c1,0,2,0.2,2.8,0.7c0.8,0.5,1.6,1,2.3,1.8c0.7,0.7,1.4,1.5,1.9,2.4c0.6,0.9,1.1,1.8,1.6,2.8c0.2,0.2,0.4,0.8,0.9,1.6
				c0.4,0.8,0.9,1.8,1.5,3c0.6,1.1,1.1,2.3,1.8,3.6c0.6,1.3,1.2,2.5,1.7,3.6c0.5,1.1,1,2.1,1.4,3c0.4,0.8,0.7,1.4,0.8,1.7
				c0.3,0.5,0.5,0.8,0.7,1.1c0.2,0.3,0.4,0.5,0.6,0.8c0.2,0.3,0.3,0.5,0.5,0.6c0.2,0.3,0.4,0.4,0.7,0.5c0.3,0,0.6,0.1,0.8,0.1
				c0.3,0,0.6,0,0.8,0.1c0.3,0.1,0.4,0.3,0.5,0.6c-1.1,1.6-2.5,2.9-4,3.8c-1.5,0.9-3.2,1.3-5.1,1.3c-0.9,0-1.5-0.3-2-0.9
				c-0.5-0.6-1-1.3-1.4-2c-0.4-0.7-0.8-1.4-1.3-2c-0.5-0.6-1.1-0.9-1.8-0.9C27.2,129.2,26.1,129.5,25,130z"/>
			<path id="Fill-8-Copy" class="st3" d="M110,45c0,0.7,0.2,1.4,0.5,2c0.3,0.6,0.8,1.1,1.4,1.6c0.6,0.4,1.2,0.8,1.9,1
				c0.7,0.2,1.3,0.4,2,0.4c0.4,0,0.9-0.1,1.5-0.2c0.6-0.1,1.2-0.3,1.7-0.6c0.5-0.3,1-0.6,1.4-1c0.4-0.4,0.6-0.9,0.6-1.4
				c0-0.1,0-0.2,0-0.3c0-0.1,0-0.2,0-0.3l-3-6.2c-0.5,0-0.9-0.1-1-0.1c-0.7,0-1.4,0.1-2.2,0.3c-0.8,0.2-1.5,0.5-2.2,0.9
				c-0.7,0.4-1.3,0.9-1.8,1.6C110.2,43.4,110,44.2,110,45 M119,51c-1.1,0.6-2.3,1.1-3.4,1.8c-1.1,0.6-2.3,1.2-3.4,1.8
				c-1.2,0.5-2.4,0.8-3.7,0.8c-0.7,0-1.4-0.1-2.2-0.4c-0.8-0.3-1.5-0.7-2.1-1.2c-0.6-0.5-1.1-1.1-1.5-1.8c-0.4-0.7-0.6-1.5-0.6-2.3
				c0-1.5,0.5-2.9,1.4-4.2c1-1.3,2.1-2.6,3.4-3.7c1.3-1.1,2.7-2.1,4.1-3c1.4-0.9,2.5-1.7,3.3-2.3c0.2-0.2,0.4-0.4,0.7-0.7
				c0.3-0.3,0.4-0.5,0.4-0.6c0.1-0.6,0-1.2-0.3-1.9c-0.3-0.7-0.8-1.3-1.3-1.9c-0.6-0.6-1.2-1-1.9-1.4c-0.7-0.4-1.3-0.6-1.8-0.6
				c-0.6,0-1.2,0.2-1.6,0.5c-0.5,0.4-0.9,0.7-1.3,1.1c-0.4,0.4-0.9,0.8-1.3,1.1c-0.5,0.4-1,0.5-1.6,0.5c-1.2-0.1-1.5-0.6-0.8-1.4
				c0.7-0.8,1.2-1.5,1.6-1.9c0.7-0.5,1.4-1.1,2.3-1.8c0.9-0.7,1.9-1.4,2.9-2.1c1-0.7,2.1-1.2,3.2-1.7c1.1-0.5,2.1-0.7,3.1-0.7
				c1,0,2,0.2,2.8,0.7c0.8,0.5,1.6,1,2.3,1.8c0.7,0.7,1.4,1.5,1.9,2.4c0.6,0.9,1.1,1.8,1.6,2.8c0.2,0.2,0.4,0.8,0.9,1.6
				c0.4,0.8,0.9,1.8,1.5,3c0.6,1.1,1.1,2.3,1.8,3.6c0.6,1.3,1.2,2.5,1.7,3.6c0.5,1.1,1,2.1,1.4,3c0.4,0.8,0.7,1.4,0.8,1.7
				c0.3,0.5,0.5,0.8,0.7,1.1c0.2,0.3,0.4,0.5,0.6,0.8c0.2,0.3,0.3,0.5,0.5,0.6c0.2,0.3,0.4,0.4,0.7,0.5c0.3,0,0.6,0.1,0.8,0.1
				c0.3,0,0.6,0,0.8,0.1c0.3,0.1,0.4,0.3,0.5,0.6c-1.1,1.6-2.5,2.9-4,3.8c-1.5,0.9-3.2,1.3-5.1,1.3c-0.9,0-1.5-0.3-2-0.9
				c-0.5-0.6-1-1.3-1.4-2c-0.4-0.7-0.8-1.4-1.3-2c-0.5-0.6-1.1-0.9-1.8-0.9C121.2,50.2,120.1,50.5,119,51z"/>
			<path id="Fill-8-Copy-2" class="st4" d="M63,124c0,0.7,0.2,1.4,0.5,2c0.3,0.6,0.8,1.1,1.4,1.6c0.6,0.4,1.2,0.8,1.9,1
				c0.7,0.2,1.3,0.4,2,0.4c0.4,0,0.9-0.1,1.5-0.2c0.6-0.1,1.2-0.3,1.7-0.6c0.5-0.3,1-0.6,1.4-1c0.4-0.4,0.6-0.9,0.6-1.4
				c0-0.1,0-0.2,0-0.3c0-0.1,0-0.2,0-0.3l-3-6.2c-0.5,0-0.9-0.1-1-0.1c-0.7,0-1.4,0.1-2.2,0.3c-0.8,0.2-1.5,0.5-2.2,0.9
				c-0.7,0.4-1.3,0.9-1.8,1.6C63.2,122.4,63,123.2,63,124 M71.9,129.8c-1.2,0.6-2.4,1.2-3.6,1.8c-1.2,0.7-2.4,1.3-3.6,1.8
				c-1.2,0.5-2.5,0.8-3.9,0.8c-0.7,0-1.5-0.2-2.3-0.5c-0.8-0.3-1.6-0.7-2.2-1.2c-0.7-0.5-1.2-1.2-1.6-1.9c-0.4-0.7-0.6-1.5-0.6-2.4
				c0-1.5,0.5-3,1.5-4.4c1-1.4,2.2-2.6,3.6-3.8c1.4-1.2,2.8-2.2,4.3-3.1c1.4-0.9,2.6-1.7,3.5-2.4c0.2-0.2,0.5-0.4,0.8-0.7
				c0.3-0.3,0.5-0.5,0.5-0.6c0.1-0.6,0-1.3-0.3-1.9c-0.3-0.7-0.8-1.3-1.4-1.9c-0.6-0.6-1.2-1.1-2-1.5c-0.7-0.4-1.4-0.6-1.9-0.6
				c-0.7,0-1.2,0.2-1.7,0.5c-0.5,0.4-1,0.8-1.4,1.2c-0.4,0.4-0.9,0.8-1.4,1.2c-0.5,0.4-1,0.5-1.7,0.5c-1.3-0.1-1.6-0.6-0.9-1.4
				c0.7-0.8,1.3-1.5,1.7-2c0.7-0.5,1.5-1.1,2.5-1.8c1-0.7,2-1.5,3.1-2.2c1.1-0.7,2.2-1.3,3.4-1.8c1.1-0.5,2.2-0.8,3.3-0.8
				c1.1,0,2.1,0.2,3,0.7c0.9,0.5,1.7,1.1,2.5,1.8c0.8,0.7,1.4,1.6,2.1,2.5c0.6,0.9,1.2,1.9,1.7,2.8c0.2,0.2,0.5,0.8,0.9,1.7
				c0.4,0.9,1,1.9,1.6,3.1c0.6,1.2,1.2,2.4,1.9,3.7c0.7,1.3,1.3,2.6,1.8,3.7c0.6,1.2,1.1,2.2,1.5,3.1c0.4,0.9,0.7,1.4,0.9,1.7
				c0.3,0.5,0.5,0.9,0.7,1.2c0.2,0.3,0.4,0.6,0.6,0.8c0.2,0.3,0.4,0.5,0.5,0.6c0.2,0.3,0.5,0.4,0.8,0.5c0.3,0,0.6,0.1,0.9,0.1
				c0.3,0,0.6,0,0.9,0.1c0.3,0.1,0.4,0.3,0.5,0.6c-1.2,1.7-2.6,3-4.2,3.9c-1.6,0.9-3.4,1.4-5.4,1.4c-0.9,0-1.6-0.3-2.1-0.9
				c-0.5-0.6-1-1.3-1.4-2.1c-0.4-0.7-0.9-1.4-1.4-2.1c-0.5-0.6-1.1-0.9-1.9-0.9C74.3,129,73.1,129.3,71.9,129.8z"/>
			<path id="Fill-8-Copy-6" class="st5" d="M112,83c0,0.6,0.1,1.1,0.4,1.6c0.3,0.5,0.7,0.9,1.1,1.3c0.5,0.3,1,0.6,1.5,0.8
				c0.5,0.2,1.1,0.3,1.7,0.3c0.3,0,0.7,0,1.2-0.1c0.5-0.1,1-0.3,1.4-0.5c0.4-0.2,0.8-0.5,1.1-0.8c0.3-0.3,0.5-0.7,0.5-1.1
				c0-0.1,0-0.2,0-0.3c0-0.1,0-0.2,0-0.2l-2.5-4.9c-0.4,0-0.7,0-0.8,0c-0.6,0-1.2,0.1-1.8,0.2c-0.6,0.2-1.3,0.4-1.8,0.7
				c-0.6,0.3-1.1,0.7-1.4,1.3C112.2,81.8,112,82.3,112,83 M119.1,87.9c-1,0.5-1.9,0.9-2.9,1.5c-1,0.5-1.9,1-2.9,1.4
				c-1,0.4-2,0.6-3,0.6c-0.6,0-1.2-0.1-1.8-0.4c-0.6-0.2-1.2-0.6-1.7-1c-0.5-0.4-0.9-0.9-1.3-1.5c-0.3-0.6-0.5-1.2-0.5-1.9
				c0-1.2,0.4-2.4,1.2-3.5c0.8-1.1,1.8-2.1,2.9-3c1.1-0.9,2.2-1.7,3.4-2.5c1.1-0.7,2.1-1.4,2.7-1.9c0.2-0.1,0.4-0.3,0.6-0.6
				c0.2-0.3,0.4-0.4,0.4-0.5c0.1-0.5,0-1-0.3-1.5c-0.3-0.5-0.6-1.1-1.1-1.5c-0.5-0.5-1-0.9-1.5-1.2c-0.6-0.3-1.1-0.5-1.5-0.5
				c-0.5,0-1,0.1-1.4,0.4c-0.4,0.3-0.8,0.6-1.1,0.9c-0.4,0.3-0.7,0.7-1.1,0.9c-0.4,0.3-0.8,0.4-1.3,0.4c-1-0.1-1.2-0.5-0.7-1.1
				c0.6-0.7,1-1.2,1.3-1.6c0.5-0.4,1.2-0.9,2-1.5c0.8-0.6,1.6-1.2,2.4-1.7c0.9-0.5,1.8-1,2.7-1.4c0.9-0.4,1.8-0.6,2.6-0.6
				c0.9,0,1.7,0.2,2.4,0.6c0.7,0.4,1.4,0.9,2,1.4c0.6,0.6,1.1,1.3,1.6,2c0.5,0.7,0.9,1.5,1.3,2.3c0.1,0.2,0.4,0.6,0.7,1.3
				c0.4,0.7,0.8,1.5,1.2,2.4c0.5,0.9,1,1.9,1.5,3c0.5,1,1,2,1.4,3c0.5,0.9,0.8,1.7,1.2,2.4c0.3,0.7,0.6,1.1,0.7,1.4
				c0.2,0.4,0.4,0.7,0.6,0.9c0.2,0.2,0.3,0.4,0.5,0.7c0.2,0.2,0.3,0.4,0.4,0.5c0.2,0.2,0.4,0.4,0.6,0.4c0.2,0,0.5,0,0.7,0
				c0.3,0,0.5,0,0.7,0.1c0.2,0.1,0.3,0.2,0.4,0.5c-0.9,1.3-2,2.4-3.3,3.1c-1.3,0.7-2.7,1.1-4.3,1.1c-0.7,0-1.3-0.2-1.7-0.7
				c-0.4-0.5-0.8-1-1.1-1.6c-0.3-0.6-0.7-1.1-1.1-1.6c-0.4-0.5-0.9-0.7-1.5-0.7C121,87.2,120.1,87.5,119.1,87.9z"/>
			<path id="Fill-8-Copy-3" class="st6" d="M18,84c0,0.6,0.1,1.1,0.4,1.6c0.3,0.5,0.7,0.9,1.1,1.3c0.5,0.3,1,0.6,1.5,0.8
				c0.5,0.2,1.1,0.3,1.7,0.3c0.3,0,0.7,0,1.2-0.1c0.5-0.1,1-0.3,1.4-0.5c0.4-0.2,0.8-0.5,1.1-0.8c0.3-0.3,0.5-0.7,0.5-1.1
				c0-0.1,0-0.2,0-0.3c0-0.1,0-0.2,0-0.2L24.5,80c-0.4,0-0.7,0-0.8,0c-0.6,0-1.2,0.1-1.8,0.2c-0.6,0.2-1.3,0.4-1.8,0.7
				c-0.6,0.3-1.1,0.7-1.4,1.3C18.2,82.8,18,83.3,18,84 M25.1,88.9c-1,0.5-1.9,0.9-2.9,1.5c-1,0.5-1.9,1-2.9,1.4c-1,0.4-2,0.6-3,0.6
				c-0.6,0-1.2-0.1-1.8-0.4c-0.6-0.2-1.2-0.6-1.7-1c-0.5-0.4-0.9-0.9-1.3-1.5c-0.3-0.6-0.5-1.2-0.5-1.9c0-1.2,0.4-2.4,1.2-3.5
				c0.8-1.1,1.8-2.1,2.9-3c1.1-0.9,2.2-1.7,3.4-2.5c1.1-0.7,2.1-1.4,2.7-1.9c0.2-0.1,0.4-0.3,0.6-0.6c0.2-0.3,0.4-0.4,0.4-0.5
				c0.1-0.5,0-1-0.3-1.5c-0.3-0.5-0.6-1.1-1.1-1.5c-0.5-0.5-1-0.9-1.5-1.2c-0.6-0.3-1.1-0.5-1.5-0.5c-0.5,0-1,0.1-1.4,0.4
				c-0.4,0.3-0.8,0.6-1.1,0.9c-0.4,0.3-0.7,0.7-1.1,0.9c-0.4,0.3-0.8,0.4-1.3,0.4c-1-0.1-1.2-0.5-0.7-1.1c0.6-0.7,1-1.2,1.3-1.6
				c0.5-0.4,1.2-0.9,2-1.5c0.8-0.6,1.6-1.2,2.4-1.7c0.9-0.5,1.8-1,2.7-1.4c0.9-0.4,1.8-0.6,2.6-0.6c0.9,0,1.7,0.2,2.4,0.6
				c0.7,0.4,1.4,0.9,2,1.4c0.6,0.6,1.1,1.3,1.6,2c0.5,0.7,0.9,1.5,1.3,2.3c0.1,0.2,0.4,0.6,0.7,1.3c0.4,0.7,0.8,1.5,1.2,2.4
				c0.5,0.9,1,1.9,1.5,3c0.5,1,1,2,1.4,3c0.5,0.9,0.8,1.7,1.2,2.4c0.3,0.7,0.6,1.1,0.7,1.4c0.2,0.4,0.4,0.7,0.6,0.9
				c0.2,0.2,0.3,0.4,0.5,0.7c0.2,0.2,0.3,0.4,0.4,0.5c0.2,0.2,0.4,0.4,0.6,0.4c0.2,0,0.5,0,0.7,0c0.3,0,0.5,0,0.7,0.1
				c0.2,0.1,0.3,0.2,0.4,0.5c-0.9,1.3-2,2.4-3.3,3.1C36.4,92.6,35,93,33.4,93c-0.7,0-1.3-0.2-1.7-0.7c-0.4-0.5-0.8-1-1.1-1.6
				c-0.3-0.6-0.7-1.1-1.1-1.6c-0.4-0.5-0.9-0.7-1.5-0.7C27,88.2,26.1,88.5,25.1,88.9z"/>
			<path id="Fill-8-Copy-8" class="st6" d="M113,123c0,0.6,0.1,1.1,0.4,1.6c0.3,0.5,0.7,0.9,1.1,1.3c0.5,0.3,1,0.6,1.5,0.8
				c0.5,0.2,1.1,0.3,1.7,0.3c0.3,0,0.7,0,1.2-0.1c0.5-0.1,1-0.3,1.4-0.5c0.4-0.2,0.8-0.5,1.1-0.8c0.3-0.3,0.5-0.7,0.5-1.1
				c0-0.1,0-0.2,0-0.3c0-0.1,0-0.2,0-0.2l-2.5-4.9c-0.4,0-0.7,0-0.8,0c-0.6,0-1.2,0.1-1.8,0.2c-0.6,0.2-1.3,0.4-1.8,0.7
				c-0.6,0.3-1.1,0.7-1.4,1.3C113.2,121.8,113,122.3,113,123 M119.2,128.2c-0.9,0.4-1.8,0.9-2.7,1.4c-0.9,0.5-1.8,0.9-2.7,1.3
				c-0.9,0.4-1.8,0.6-2.8,0.6c-0.5,0-1.1-0.1-1.7-0.3c-0.6-0.2-1.1-0.5-1.6-0.9c-0.5-0.4-0.9-0.8-1.2-1.4c-0.3-0.5-0.5-1.1-0.5-1.7
				c0-1.1,0.4-2.2,1.1-3.2c0.8-1,1.6-1.9,2.7-2.8c1-0.8,2.1-1.6,3.2-2.3c1.1-0.7,1.9-1.3,2.5-1.7c0.2-0.1,0.3-0.3,0.6-0.5
				c0.2-0.2,0.3-0.4,0.3-0.4c0.1-0.4,0-0.9-0.2-1.4c-0.3-0.5-0.6-1-1-1.4c-0.4-0.4-0.9-0.8-1.4-1.1c-0.5-0.3-1-0.4-1.4-0.4
				c-0.5,0-0.9,0.1-1.3,0.4c-0.4,0.3-0.7,0.6-1,0.9c-0.3,0.3-0.7,0.6-1,0.9c-0.4,0.3-0.8,0.4-1.2,0.4c-0.9-0.1-1.1-0.4-0.6-1
				c0.5-0.6,0.9-1.1,1.2-1.5c0.5-0.4,1.1-0.8,1.8-1.4c0.7-0.5,1.5-1.1,2.3-1.6c0.8-0.5,1.6-0.9,2.5-1.3c0.8-0.4,1.7-0.6,2.4-0.6
				c0.8,0,1.5,0.2,2.2,0.5c0.7,0.3,1.3,0.8,1.8,1.3c0.6,0.6,1.1,1.2,1.5,1.8c0.5,0.7,0.9,1.4,1.2,2.1c0.1,0.2,0.3,0.6,0.7,1.2
				c0.3,0.6,0.7,1.4,1.1,2.2c0.4,0.9,0.9,1.8,1.4,2.7c0.5,1,0.9,1.9,1.4,2.7c0.4,0.9,0.8,1.6,1.1,2.3c0.3,0.6,0.5,1.1,0.7,1.3
				c0.2,0.4,0.4,0.6,0.5,0.8c0.1,0.2,0.3,0.4,0.5,0.6c0.1,0.2,0.3,0.4,0.4,0.4c0.2,0.2,0.3,0.3,0.6,0.4c0.2,0,0.4,0,0.7,0
				c0.2,0,0.5,0,0.7,0.1c0.2,0.1,0.3,0.2,0.4,0.4c-0.9,1.2-1.9,2.2-3.1,2.9c-1.2,0.7-2.5,1-4,1c-0.7,0-1.2-0.2-1.6-0.7
				c-0.4-0.5-0.7-1-1.1-1.5c-0.3-0.5-0.7-1.1-1-1.5c-0.4-0.5-0.8-0.7-1.4-0.7C121,127.6,120.1,127.8,119.2,128.2z"/>
			<path id="Fill-8-Copy-4" class="st7" d="M67,83c0,0.4,0.1,0.9,0.3,1.2c0.2,0.4,0.5,0.7,0.9,0.9c0.4,0.3,0.8,0.5,1.2,0.6
				c0.4,0.1,0.9,0.2,1.3,0.2c0.3,0,0.6,0,1-0.1c0.4-0.1,0.8-0.2,1.1-0.4c0.3-0.2,0.6-0.4,0.9-0.6c0.2-0.2,0.4-0.5,0.4-0.8
				c0,0,0-0.1,0-0.2c0-0.1,0-0.1,0-0.2L72,80c-0.3,0-0.5,0-0.6,0c-0.4,0-0.9,0.1-1.4,0.2c-0.5,0.1-1,0.3-1.4,0.6
				c-0.5,0.2-0.8,0.6-1.1,0.9C67.1,82.1,67,82.5,67,83 M72.4,87c-0.7,0.3-1.4,0.7-2.1,1.1c-0.7,0.4-1.4,0.7-2.1,1.1
				c-0.7,0.3-1.5,0.5-2.2,0.5c-0.4,0-0.9-0.1-1.3-0.3c-0.5-0.2-0.9-0.4-1.3-0.7c-0.4-0.3-0.7-0.7-0.9-1.1c-0.2-0.4-0.4-0.9-0.4-1.4
				c0-0.9,0.3-1.8,0.9-2.6c0.6-0.8,1.3-1.6,2.1-2.2c0.8-0.7,1.6-1.3,2.5-1.8c0.8-0.5,1.5-1,2-1.4c0.1-0.1,0.3-0.2,0.4-0.4
				c0.2-0.2,0.3-0.3,0.3-0.4c0.1-0.4,0-0.7-0.2-1.1c-0.2-0.4-0.5-0.8-0.8-1.1c-0.3-0.3-0.7-0.6-1.1-0.9c-0.4-0.2-0.8-0.4-1.1-0.4
				c-0.4,0-0.7,0.1-1,0.3c-0.3,0.2-0.6,0.4-0.8,0.7c-0.3,0.2-0.5,0.5-0.8,0.7c-0.3,0.2-0.6,0.3-1,0.3c-0.7-0.1-0.9-0.3-0.5-0.8
				c0.4-0.5,0.7-0.9,1-1.2c0.4-0.3,0.9-0.6,1.4-1.1c0.6-0.4,1.2-0.9,1.8-1.3c0.6-0.4,1.3-0.8,1.9-1.1c0.7-0.3,1.3-0.4,1.9-0.4
				c0.6,0,1.2,0.1,1.7,0.4c0.5,0.3,1,0.6,1.4,1.1c0.4,0.4,0.8,0.9,1.2,1.5c0.4,0.5,0.7,1.1,1,1.7c0.1,0.1,0.3,0.5,0.5,1
				c0.3,0.5,0.6,1.1,0.9,1.8c0.3,0.7,0.7,1.4,1.1,2.2c0.4,0.8,0.7,1.5,1.1,2.2c0.3,0.7,0.6,1.3,0.9,1.8c0.2,0.5,0.4,0.8,0.5,1
				c0.2,0.3,0.3,0.5,0.4,0.7c0.1,0.2,0.2,0.3,0.4,0.5c0.1,0.2,0.2,0.3,0.3,0.4c0.1,0.2,0.3,0.3,0.4,0.3c0.2,0,0.3,0,0.5,0
				c0.2,0,0.4,0,0.5,0.1c0.2,0,0.3,0.2,0.3,0.4c-0.7,1-1.5,1.8-2.4,2.3c-0.9,0.5-2,0.8-3.1,0.8c-0.5,0-0.9-0.2-1.2-0.6
				c-0.3-0.4-0.6-0.8-0.8-1.2c-0.2-0.4-0.5-0.8-0.8-1.2c-0.3-0.4-0.6-0.6-1.1-0.6C73.8,86.5,73.1,86.6,72.4,87z"/>
			<path id="Fill-8-Copy-5" class="st8" d="M65,44.5c0,0.7,0.2,1.3,0.5,1.8c0.3,0.6,0.7,1,1.2,1.4c0.5,0.4,1.1,0.7,1.7,0.9
				c0.6,0.2,1.2,0.3,1.9,0.3c0.4,0,0.8-0.1,1.4-0.2c0.6-0.1,1.1-0.3,1.6-0.5c0.5-0.2,0.9-0.5,1.3-0.9c0.3-0.4,0.5-0.8,0.5-1.3
				c0-0.1,0-0.2,0-0.3c0-0.1,0-0.2,0-0.2l-2.8-5.6c-0.5,0-0.8-0.1-0.9-0.1c-0.6,0-1.3,0.1-2,0.3c-0.7,0.2-1.4,0.5-2,0.8
				c-0.6,0.4-1.2,0.8-1.6,1.4C65.2,43.1,65,43.8,65,44.5 M72.4,51c-1.2,0.6-2.3,1.1-3.5,1.8c-1.2,0.6-2.4,1.2-3.5,1.8
				c-1.2,0.5-2.4,0.8-3.8,0.8c-0.7,0-1.5-0.1-2.3-0.4c-0.8-0.3-1.5-0.7-2.1-1.2c-0.6-0.5-1.2-1.1-1.6-1.8c-0.4-0.7-0.6-1.5-0.6-2.3
				c0-1.5,0.5-2.9,1.5-4.2c1-1.3,2.2-2.6,3.5-3.7c1.4-1.1,2.8-2.1,4.2-3c1.4-0.9,2.5-1.7,3.4-2.3c0.2-0.2,0.4-0.4,0.7-0.7
				c0.3-0.3,0.4-0.5,0.4-0.6c0.1-0.6,0-1.2-0.3-1.9c-0.3-0.7-0.8-1.3-1.4-1.9c-0.6-0.6-1.2-1-1.9-1.4c-0.7-0.4-1.3-0.6-1.9-0.6
				c-0.6,0-1.2,0.2-1.7,0.5c-0.5,0.4-0.9,0.7-1.4,1.1c-0.4,0.4-0.9,0.8-1.4,1.1c-0.5,0.4-1,0.5-1.6,0.5c-1.2-0.1-1.5-0.6-0.8-1.4
				c0.7-0.8,1.3-1.5,1.6-1.9c0.7-0.5,1.5-1.1,2.4-1.8c0.9-0.7,1.9-1.4,3-2.1c1.1-0.7,2.2-1.2,3.3-1.7c1.1-0.5,2.2-0.7,3.2-0.7
				c1.1,0,2,0.2,2.9,0.7c0.9,0.5,1.7,1,2.4,1.8c0.7,0.7,1.4,1.5,2,2.4c0.6,0.9,1.1,1.8,1.6,2.8c0.2,0.2,0.5,0.8,0.9,1.6
				c0.4,0.8,0.9,1.8,1.5,3c0.6,1.1,1.2,2.3,1.8,3.6c0.6,1.3,1.2,2.5,1.8,3.6c0.6,1.1,1,2.1,1.5,3c0.4,0.8,0.7,1.4,0.9,1.7
				c0.3,0.5,0.5,0.8,0.7,1.1c0.2,0.3,0.4,0.5,0.6,0.8c0.2,0.3,0.4,0.5,0.5,0.6c0.2,0.3,0.4,0.4,0.7,0.5c0.3,0,0.6,0.1,0.9,0.1
				c0.3,0,0.6,0,0.9,0.1c0.3,0.1,0.4,0.3,0.5,0.6c-1.2,1.6-2.5,2.9-4.1,3.8c-1.6,0.9-3.3,1.3-5.2,1.3c-0.9,0-1.6-0.3-2.1-0.9
				c-0.5-0.6-1-1.3-1.4-2c-0.4-0.7-0.9-1.4-1.3-2c-0.5-0.6-1.1-0.9-1.8-0.9C74.8,50.2,73.6,50.5,72.4,51z"/>
		</g>
	</g>
</g>
</svg>
