<?xml version="1.0" encoding="utf-8"?>
<!-- Generator: Adobe Illustrator 21.0.2, SVG Export Plug-In . SVG Version: 6.00 Build 0)  -->
<svg version="1.1" id="Calque_1" xmlns="http://www.w3.org/2000/svg" xmlns:xlink="http://www.w3.org/1999/xlink" x="0px" y="0px"
	 viewBox="0 0 174 151" style="enable-background:new 0 0 174 151;" xml:space="preserve">
<style type="text/css">
	.st0{fill:none;stroke:#2DC0D7;}
	.st1{fill:#FFD500;}
	.st2{fill:#2DC0D7;}
	.st3{fill:#15A12E;}
	.st4{fill:#FF9C00;}
	.st5{opacity:0.5;fill:#2DC0D7;}
</style>
<title>Group 3</title>
<desc>Created with Sketch.</desc>
<polygon id="Stroke-3" class="st0" points="66.3,149.5 104.7,149.5 104.7,1 66.3,1 "/>
<polygon id="Stroke-5" class="st0" points="104.7,132.7 143.8,132.7 143.8,39.7 104.7,39.7 "/>
<polyline id="Stroke-6_1_" class="st0" points="158,60.4 158,21.7 14.8,21.7 14.8,60.4 "/>
<polyline id="Stroke-6-Copy_1_" class="st0" points="14.8,96.7 14.8,134.7 103.8,134.7 103.8,96.7 "/>
<g>
	<path class="st1" d="M92.4,56.7c-1.6-3.1-3-5.9-4.2-8.2s-2-3.8-2.5-4.5c-1.3-2.6-2.8-5.1-4.4-7.6s-3.5-4.7-5.5-6.7
		s-4.2-3.6-6.7-4.9c-2.4-1.2-5.1-1.9-8-1.9c-2.8,0-5.8,0.7-8.9,2c-3.1,1.4-6.1,2.9-9,4.8c-3,1.8-5.7,3.8-8.3,5.8s-4.8,3.6-6.7,4.9
		c-1,1.3-2.5,3.1-4.4,5.4c-1.9,2.2-1.1,3.4,2.3,3.7c1.6,0,3.1-0.5,4.4-1.5s2.6-2,3.8-3.2c1.2-1.1,2.5-2.2,3.8-3.2s2.8-1.5,4.6-1.5
		c1.5,0,3.3,0.5,5.2,1.6s3.7,2.4,5.3,4S56,49,57,50.8c0.9,1.8,1.2,3.6,0.9,5.2c0,0.2-0.4,0.8-1.2,1.6c-0.8,0.9-2.7,2.6-3,2.8l40.5,0
		C93.4,58.9,93,57.9,92.4,56.7z"/>
	<path class="st1" d="M21.6,102.6c1.2,1.9,2.6,3.6,4.4,5c1.7,1.4,3.7,2.5,5.9,3.3s4.3,1.2,6.2,1.2c3.6,0,7.1-0.7,10.3-2.2
		c3.3-1.5,6.5-3.1,9.8-4.9c3.2-1.8,6.5-3.4,9.7-4.9s6.5-2.3,9.8-2.3c2.1,0,3.8,0.8,5.1,2.5c1.3,1.7,2.5,3.5,3.7,5.5s2.4,3.8,3.9,5.5
		c1.4,1.7,3.3,2.5,5.7,2.5c5.3,0,10.1-1.2,14.5-3.7c4.4-2.4,8.2-5.9,11.3-10.5c-0.2-0.9-0.7-1.4-1.4-1.6c-0.7-0.2-1.5-0.3-2.4-0.3
		c-0.8,0-1.6-0.1-2.4-0.2c-0.7-0.1-1.4-0.5-1.9-1.1H19.9C19.9,98.8,20.5,100.8,21.6,102.6z"/>
	<path class="st2" d="M24,84.6c2.7-3.7,6-7.1,9.8-10.1c3.8-3.1,7.6-5.9,11.5-8.4c3.5-2.2,6.3-4.1,8.5-5.7H1v36.3h18.9
		c0-0.1,0-0.2,0-0.4C19.8,92.2,21.2,88.3,24,84.6z"/>
	<path class="st2" d="M173,60.4H94.2c1,2,2.1,4.1,3.2,6.3c1.7,3.5,3.4,6.8,4.9,10c1.5,3.1,2.9,5.9,4,8.2c1.1,2.3,1.9,3.9,2.4,4.6
		c0.8,1.3,1.4,2.3,2,3.1c0.5,0.8,1.1,1.5,1.6,2.3s1,1.3,1.3,1.6c0.1,0.1,0.1,0.1,0.2,0.2H173V60.4z"/>
	<path class="st3" d="M112.3,94.9c-0.5-0.8-1.1-1.5-1.6-2.3c-0.6-0.8-1.2-1.8-2-3.1c-0.4-0.8-1.2-2.3-2.4-4.6
		c-1.2-2.3-2.5-5.1-4-8.2s-3.2-6.5-4.9-10c-1.1-2.2-2.1-4.3-3.2-6.3H53.7c-2.2,1.6-5,3.5-8.5,5.7c-3.9,2.5-7.7,5.3-11.5,8.4
		s-7,6.5-9.8,10.1c-2.7,3.7-4.1,7.6-4.1,11.7c0,0.1,0,0.2,0,0.4h93.9c-0.1-0.1-0.1-0.1-0.2-0.2C113.3,96.2,112.9,95.6,112.3,94.9z
		 M71.3,91.3c-1.1,1.1-2.3,1.9-3.8,2.7c-1.5,0.7-3.1,1.3-4.7,1.6c-1.7,0.3-3,0.5-4.1,0.5c-1.9,0-3.7-0.3-5.6-1
		c-1.8-0.7-3.5-1.6-5.1-2.8c-1.6-1.2-2.8-2.6-3.7-4.2c-0.9-1.7-1.4-3.5-1.4-5.5c0-2.2,0.6-4.2,1.9-5.9c1.3-1.7,2.9-3.1,4.8-4.2
		c1.9-1.1,4-1.9,6.1-2.5c2.2-0.6,4.2-0.8,6-0.8c0.3,0,1.2,0.1,2.7,0.2l8.3,16.7c0,0.1,0,0.4,0.1,0.7c0.1,0.4,0.1,0.7,0.1,0.9
		C72.8,89,72.3,90.2,71.3,91.3z"/>
</g>
<path id="Fill-1" class="st4" d="M115.7,70c-3.4,0-3.9,1-3.9,4.9v37.7c0,5.2,5.8,9.4,11.1,9.4c2.7,0,7.3-3.4,7.3-6.2V79.6
	c0.3-1.1,0.8-2.6,1.6-4.7v-0.5c0-1.1-2.4-2.1-7.1-3.1C120.7,70.5,117.8,70,115.7,70L115.7,70z M91.8,75.5c0-2.1,2.3-4.4,6.7-7.1
	c3.3-1.8,6.5-3.4,9.6-5.2c3.1-2.1,7.8-5.5,14.1-10c1.3-0.2,2.5-0.2,3.4-0.2c1.1,0,4.6,1.1,10.5,3.2c6,2.1,9.8,3.1,11.4,3.1
	c1.8,0,4.7-3.2,6.7-3.2c1.5,0,2.3,0.6,2.3,2.1c0,1.3-1,3.7-3.1,7.3c-2.1,3.4-3.1,6.6-3.1,9.4v43.8c0,2.6,1.3,3.9,3.9,3.9h2.9
	c1.8,0,2.6,0.6,2.6,2.1l-0.2,1.1l-14.9,11.5h-3.9c-1.5-1-3.4-2.4-6.2-4.5c-0.7-0.6-1.5-2.3-2.3-5c-0.8-2.4-1.5-3.6-2.3-3.6
	c-2.5,1.8-5.9,4.7-10.3,8.6c-2.1,2.1-4.6,5.3-7.4,5.3c-1.5,0-3.9-0.8-7.2-2.3c-8.7-3.9-11.9-8.1-12.6-17.1c-0.5-6.9-0.8-14.1-0.8-21
	V75.5H91.8z"/>
<path class="st5" d="M72.7,86l-8.3-16.7c-1.4,0-2.3-0.1-2.7-0.1c-1.9,0-3.9,0.3-6,0.8c-2.2,0.6-4.2,1.4-6.1,2.5
	c-1.9,1.1-3.5,2.5-4.8,4.2s-1.9,3.7-1.9,5.9c0,2,0.5,3.8,1.4,5.5s2.2,3.1,3.7,4.2c1.5,1.2,3.2,2.1,5.1,2.8c1.8,0.7,3.7,1,5.6,1
	c1.1,0,2.5-0.2,4.1-0.5c1.7-0.3,3.2-0.9,4.7-1.6s2.8-1.6,3.8-2.7s1.6-2.3,1.6-3.8c0-0.2,0-0.5-0.1-0.9C72.7,86.4,72.7,86.1,72.7,86z
	"/>
</svg>
