<?xml version="1.0" encoding="utf-8"?>
<!-- Generator: Adobe Illustrator 21.0.2, SVG Export Plug-In . SVG Version: 6.00 Build 0)  -->
<svg version="1.1" id="Calque_1" xmlns="http://www.w3.org/2000/svg" xmlns:xlink="http://www.w3.org/1999/xlink" x="0px" y="0px"
	 viewBox="0 0 158 153" style="enable-background:new 0 0 158 153;" xml:space="preserve">
<style type="text/css">
	.st0{fill:none;stroke:#15B7D0;enable-background:new    ;}
	.st1{fill:#FFD500;}
	.st2{opacity:0.3;}
</style>
<g>
	<polygon id="Stroke-3" class="st0" points="66.4,149.5 104.9,149.5 104.9,1 66.4,1 	"/>
	<polygon id="Stroke-5" class="st0" points="28,152 60,152 60,120 28,120 	"/>
	<polygon id="Stroke-5-Copy" class="st0" points="111,66 153,66 153,24 111,24 	"/>
	<polygon id="Stroke-5-Copy-2" class="st0" points="40,69 62,69 62,47 40,47 	"/>
	<polygon id="Stroke-9" class="st0" points="1,113.7 144.2,113.7 144.2,75 1,75 	"/>
</g>
<path id="Fill-8" class="st1" d="M60,102.5c0,2.4,0.6,4.7,1.7,6.7c1.2,2,2.7,3.8,4.6,5.2c1.9,1.4,4,2.5,6.2,3.4
	c2.2,0.8,4.5,1.2,6.8,1.2c1.4,0,3.1-0.2,5.1-0.6s4-1.1,5.8-1.9c1.8-0.9,3.4-2,4.7-3.3c1.3-1.3,1.9-2.8,1.9-4.6c0-0.3,0-0.6-0.1-1.1
	s-0.1-0.8-0.1-0.9l-10-20.4c-1.8-0.1-2.9-0.2-3.3-0.2c-2.3,0-4.8,0.3-7.5,1s-5.2,1.7-7.6,3.1s-4.4,3.1-5.9,5.2
	C60.8,97.4,60,99.8,60,102.5 M90.8,123.9c-4,1.9-8,3.9-12.1,6.1c-4,2.2-8.1,4.2-12.2,6s-8.4,2.7-12.9,2.7c-2.5,0-5-0.5-7.8-1.5
	c-2.7-1-5.2-2.4-7.4-4.1c-2.2-1.7-4-3.8-5.4-6.2c-1.4-2.4-2.1-5-2.1-7.9c0-5.1,1.7-9.9,5.1-14.5s7.5-8.8,12.2-12.6
	c4.7-3.8,9.5-7.3,14.3-10.4s8.7-5.7,11.6-7.9c0.7-0.5,1.5-1.3,2.6-2.4c1-1.1,1.5-1.7,1.5-2c0.4-2,0-4.2-1.1-6.4
	c-1.2-2.3-2.7-4.4-4.7-6.3c-2-1.9-4.2-3.6-6.5-4.9c-2.4-1.3-4.5-2-6.4-2c-2.2,0-4.1,0.6-5.7,1.8c-1.6,1.2-3.2,2.5-4.7,3.9
	S46,58,44.4,59.2S40.9,61,38.9,61c-4.2-0.4-5.2-1.9-2.9-4.6c2.5-2.8,4.3-5,5.5-6.6c2.3-1.6,5.1-3.7,8.3-6.1
	c3.2-2.5,6.6-4.9,10.3-7.2s7.4-4.3,11.2-5.9c3.8-1.7,7.5-2.5,11-2.5c3.7,0,7,0.8,10,2.3s5.8,3.6,8.3,6c2.5,2.5,4.8,5.3,6.9,8.4
	c2,3.1,3.9,6.2,5.5,9.5c0.5,0.8,1.6,2.7,3.1,5.5c1.5,2.9,3.2,6.3,5.2,10.2c2,3.9,4.1,8,6.2,12.4c2.2,4.4,4.2,8.5,6.1,12.4
	s3.6,7.3,5,10.2c1.4,2.9,2.4,4.8,3,5.7c1,1.6,1.8,2.9,2.5,3.8s1.4,1.9,2,2.8c0.7,0.9,1.2,1.6,1.6,2c0.7,0.9,1.5,1.5,2.6,1.6
	c1,0.1,2,0.2,3,0.2c1.1,0,2.1,0.1,3,0.4s1.5,0.9,1.7,2c-4,5.6-8.7,10-14.1,13c-5.5,3-11.5,4.5-18,4.5c-3,0-5.4-1-7.2-3.1
	c-1.8-2.1-3.4-4.4-4.8-6.8c-1.4-2.5-3-4.8-4.6-6.8c-1.6-2.1-3.7-3.1-6.3-3.1C98.9,121.1,94.8,122,90.8,123.9z"/>
<title>Group 5</title>
<desc>Created with Sketch.</desc>
<g class="st2">
	<polygon id="Stroke-3_1_" class="st0" points="66.4,149.5 104.9,149.5 104.9,1 66.4,1 	"/>
	<polygon id="Stroke-5_1_" class="st0" points="28,152 60,152 60,120 28,120 	"/>
	<polygon id="Stroke-5-Copy_1_" class="st0" points="111,66 153,66 153,24 111,24 	"/>
	<polygon id="Stroke-5-Copy-2_1_" class="st0" points="40,69 62,69 62,47 40,47 	"/>
	<polygon id="Stroke-9_1_" class="st0" points="1,113.7 144.2,113.7 144.2,75 1,75 	"/>
</g>
</svg>
