<?xml version="1.0" encoding="UTF-8"?>
<svg width="300px" height="198px" viewBox="0 0 300 198" version="1.1" xmlns="http://www.w3.org/2000/svg" xmlns:xlink="http://www.w3.org/1999/xlink">
    <!-- Generator: Sketch 61.2 (89653) - https://sketch.com -->
    <title>Group 6</title>
    <desc>Created with Sketch.</desc>
    <g id="Page-1" stroke="none" stroke-width="1" fill="none" fill-rule="evenodd">
        <g id="HOME" transform="translate(-794.000000, -487.000000)">
            <g id="Group-6" transform="translate(794.000000, 487.000000)">
                <rect id="Rectangle" fill="#E2E2E2" x="0" y="0" width="300" height="198"></rect>
                <path d="M157.21643,129.79506 C153.739409,129.79506 150.286309,130.592376 146.868725,132.182658 C143.446792,133.777289 140.025584,135.507463 136.607275,137.386228 C133.186067,139.25847 129.738765,140.967624 126.25957,142.500644 C122.78255,144.033664 119.130121,144.800537 115.303007,144.800537 C113.217664,144.800537 111.014174,144.37796 108.693262,143.524107 C106.374523,142.67098 104.286282,141.506899 102.434336,140.024617 C100.57804,138.552483 99.0442953,136.787517 97.8258523,134.740591 C96.6081342,132.69294 96,130.474228 96,128.086631 C96,123.768805 97.4474899,119.676403 100.347544,115.809423 C103.243973,111.943893 106.694899,108.388591 110.695248,105.152215 C114.693423,101.909315 118.753208,98.982443 122.868805,96.3665235 C126.983678,93.7527785 130.260644,91.5347919 132.695356,89.7132886 C133.275221,89.2617181 133.999329,88.5789262 134.869852,87.6692617 C135.739651,86.7603221 136.17455,86.1913289 136.17455,85.9637315 C136.520295,84.2574765 136.201369,82.4395973 135.216322,80.5042953 C134.23055,78.5733423 132.894685,76.7822819 131.217423,75.1347383 C129.532913,73.4864698 127.678792,72.090443 125.651436,70.9546309 C123.621906,69.8202685 121.796054,69.2483758 120.17243,69.2483758 C118.317584,69.2483758 116.695409,69.761557 115.303007,70.7850201 C113.912054,71.8070336 112.576913,72.915302 111.303383,74.1083758 C110.026953,75.304349 108.693262,76.4126174 107.303758,77.4360805 C105.912805,78.4602685 104.345718,78.9705503 102.60757,78.9705503 C99.0131275,78.6298792 98.1991409,77.3230067 100.172859,75.0484832 C102.259651,72.6608859 103.823839,70.7850201 104.867597,69.4179866 C106.838416,68.055302 109.186148,66.322953 111.912966,64.2194899 C114.633987,62.115302 117.564483,60.098094 120.694309,58.1620671 C123.824859,56.2325638 127.011946,54.5538523 130.260644,53.1331812 C133.503544,51.7117852 136.636993,51 139.65157,51 C142.78357,51 145.622013,51.6552483 148.172698,52.9621208 C150.721933,54.2689933 153.070389,55.9752483 155.216617,58.0779866 C157.360671,60.184349 159.305396,62.5407785 161.044268,65.1552483 C162.781691,67.7718926 164.347329,70.4428993 165.738282,73.1726174 C166.2,73.8554094 167.070523,75.4181477 168.347678,77.8637315 C169.621208,80.3085906 171.099866,83.1782013 172.782201,86.4732886 C174.462362,89.7734497 176.230228,93.2700403 178.087973,96.9652349 C179.939919,100.659705 181.679517,104.157745 183.303866,107.452107 C184.925315,110.750094 186.346711,113.622604 187.565154,116.067463 C188.781423,118.510148 189.622228,120.131597 190.086121,120.923839 C190.897208,122.291597 191.591597,123.373047 192.174362,124.166013 C192.751329,124.963329 193.331195,125.760644 193.913235,126.552161 C194.491651,127.350926 194.954819,127.916295 195.304188,128.261315 C195.884054,129.054282 196.608886,129.510926 197.479409,129.62545 C198.348483,129.737799 199.187114,129.79506 200.001101,129.79506 C200.927436,129.79506 201.766792,129.907409 202.522792,130.135732 C203.275168,130.366953 203.765879,130.932322 204,131.843436 C200.636779,136.617906 196.635705,140.281933 192.000403,142.840591 C187.359302,145.397074 182.262282,146.677852 176.69557,146.677852 C174.144161,146.677852 172.114631,145.797906 170.60843,144.033664 C169.100054,142.273047 167.740268,140.343544 166.521826,138.235732 C165.305557,136.134443 163.999409,134.199866 162.607007,132.439248 C161.218228,130.675007 159.41847,129.79506 157.21643,129.79506 M120.521074,114.274953 C120.521074,116.322604 121.013235,118.19702 121.998282,119.904725 C122.982604,121.608081 124.286577,123.059919 125.913101,124.252993 C127.535275,125.447517 129.303866,126.38255 131.217423,127.066792 C133.13098,127.746685 135.069906,128.086631 137.042174,128.086631 C138.199732,128.086631 139.65157,127.916295 141.391168,127.577074 C143.129315,127.237128 144.782658,126.697128 146.346846,125.955624 C147.913208,125.219195 149.243275,124.310255 150.34647,123.228805 C151.446765,122.148805 151.999812,120.872376 151.999812,119.390819 C151.999812,119.163221 151.968644,118.855168 151.913557,118.453611 C151.854121,118.057128 151.825852,117.799087 151.825852,117.686738 L143.129315,100.628537 C141.62094,100.519812 140.695329,100.458926 140.347409,100.458926 C138.373691,100.458926 136.26153,100.74596 133.999329,101.312779 C131.737852,101.882497 129.591624,102.737074 127.564993,103.870711 C125.534738,105.007248 123.853128,106.457638 122.520161,108.21753 C121.187195,109.982497 120.521074,111.999705 120.521074,114.274953" id="Fill-14" fill="#FBFBFB"></path>
            </g>
        </g>
    </g>
</svg>