<?xml version="1.0" encoding="UTF-8"?>
<svg width="25px" height="13px" viewBox="0 0 25 13" version="1.1" xmlns="http://www.w3.org/2000/svg" xmlns:xlink="http://www.w3.org/1999/xlink">
    <!-- Generator: Sketch 61.2 (89653) - https://sketch.com -->
    <title>Group Copy</title>
    <desc>Created with Sketch.</desc>
    <defs>
        <polygon id="path-1" points="5.32907052e-15 1.77635684e-15 24.0996 1.77635684e-15 24.0996 12.187 5.32907052e-15 12.187"></polygon>
    </defs>
    <g id="Page-1" stroke="none" stroke-width="1" fill="none" fill-rule="evenodd">
        <g id="COMPORTEMENTS" transform="translate(-77.000000, -1763.000000)">
            <g id="Group-Copy" transform="translate(77.000000, 1763.000000)">
                <mask id="mask-2" fill="white">
                    <use xlink:href="#path-1"></use>
                </mask>
                <g id="Clip-2"></g>
                <path d="M12.05,9.637 C10.093,9.637 8.507,8.051 8.507,6.094 C8.507,4.137 10.093,2.551 12.05,2.551 C14.007,2.551 15.593,4.137 15.593,6.094 C15.593,8.051 14.007,9.637 12.05,9.637 M12.05,0 C5.395,0 -4.61852778e-14,6.094 -4.61852778e-14,6.094 C-4.61852778e-14,6.094 5.395,12.187 12.05,12.187 C18.705,12.187 24.1,6.094 24.1,6.094 C24.1,6.094 18.705,0 12.05,0" id="Fill-1" fill="#7D7D7D" mask="url(#mask-2)"></path>
                <path d="M14.1759,6.094 C14.1759,7.268 13.2239,8.22 12.0499,8.22 C10.8759,8.22 9.9239,7.268 9.9239,6.094 C9.9239,4.92 10.8759,3.968 12.0499,3.968 C13.2239,3.968 14.1759,4.92 14.1759,6.094" id="Fill-4" fill="#4A4A4A" mask="url(#mask-2)"></path>
            </g>
        </g>
    </g>
</svg>