<?xml version="1.0" encoding="UTF-8"?>
<svg width="25px" height="20px" viewBox="0 0 25 20" version="1.1" xmlns="http://www.w3.org/2000/svg" xmlns:xlink="http://www.w3.org/1999/xlink">
    <!-- Generator: Sketch 61.2 (89653) - https://sketch.com -->
    <title>Group 7</title>
    <desc>Created with Sketch.</desc>
    <defs>
        <polygon id="path-1" points="6.21724894e-14 -5.06261699e-14 24.0996 -5.06261699e-14 24.0996 12.187 6.21724894e-14 12.187"></polygon>
    </defs>
    <g id="Page-1" stroke="none" stroke-width="1" fill="none" fill-rule="evenodd">
        <g id="COMPORTEMENTS" transform="translate(-77.000000, -1682.000000)">
            <g id="Group-7" transform="translate(77.000000, 1683.750000)">
                <g id="Group-5" transform="translate(0.000000, 2.250000)">
                    <mask id="mask-2" fill="white">
                        <use xlink:href="#path-1"></use>
                    </mask>
                    <g id="Clip-2"></g>
                    <path d="M12.05,9.637 C10.093,9.637 8.507,8.051 8.507,6.094 C8.507,4.137 10.093,2.551 12.05,2.551 C14.007,2.551 15.593,4.137 15.593,6.094 C15.593,8.051 14.007,9.637 12.05,9.637 M12.05,-5.06261699e-14 C5.395,-5.06261699e-14 1.0658141e-14,6.094 1.0658141e-14,6.094 C1.0658141e-14,6.094 5.395,12.187 12.05,12.187 C18.705,12.187 24.1,6.094 24.1,6.094 C24.1,6.094 18.705,-5.06261699e-14 12.05,-5.06261699e-14" id="Fill-1" fill="#7D7D7D" mask="url(#mask-2)"></path>
                </g>
                <line x1="17" y1="0.25" x2="7" y2="16.25" id="Line-2" stroke="#4A4A4A" stroke-width="2" stroke-linecap="square"></line>
            </g>
        </g>
    </g>
</svg>