<?xml version="1.0" encoding="UTF-8"?>
<svg id="Calque_1" xmlns="http://www.w3.org/2000/svg" version="1.1" viewBox="0 0 1732 282.5">
  <!-- Generator: Adobe Illustrator 29.8.4, SVG Export Plug-In . SVG Version: 2.1.1 Build 6)  -->
  <defs>
    <style>
      .st0 {
        fill: #bc052d;
      }
    </style>
  </defs>
  <g>
    <g>
      <path class="st0" d="M127.6,204.2v-2.9c0-39.8,5.7-63.7,25.1-72.3v75.2h-25.1ZM96.2,216.1c6.2,41.2,37.3,64.4,73.2,64.4s60.4-37.6,60.4-47.8-4.3-6.5-6.8-6.5-2.2.7-2.5,2.5c-4.3,19.5-19.5,41.6-50,41.6s-40-22.8-42.1-54.3h-32.2,0ZM167.8,177.4v-52.4c15.8-3.6,26.6,4.7,26.6,13.4s-4.7,19.2-4.7,20.2c0,2.9,6.8,5.8,13.3,5.8,11.1,0,18.7-4.7,18.7-17.4,0-19.5-29.1-38.7-53.9-34V17.1h98v160.3h-98ZM1.2,204.2v-97h151.5v9c-28,8.3-56.4,40.9-56.4,85.7v2.2H1.2Z"/>
      <path class="st0" d="M535,253.5c4,13.3,13.6,25.6,30.8,25.6s11.5-1.4,12.9-2.9c1.1-1.1,1.4-4,1.4-6.1s-1.1-2.9-1.8-2.9c-1.1,0-5,1.4-9.3,1.4-9.7,0-11.1-11.9-11.1-34.7,0,0,.7-22.4.7-55.2s-27.6-52.7-50.9-52.7-44.1,14.8-44.1,30.4,7.5,17.7,15.1,17.7,14.7-4,14.7-5.8c0-2.9-3.6-7.2-3.6-17.7s6.5-15.5,17.2-15.5c16.2,0,25.1,13.7,25.1,34.7v14.8c0,2.9-4,8.7-18.6,12.3-15.1,3.6-32.3,5.1-42.3,9.8-13.2,6.1-18.3,16.6-18.3,27.1,0,26.7,17.2,45.5,44.8,45.5s32.3-13.7,37.3-25.6h0v-.2ZM531.8,196.4h.3v38.6c0,15.2-15.1,33.6-28.7,33.6s-22.9-18.1-22.9-34.3,4-17.7,11.1-21.7c5-2.9,11.5-4.7,19.4-6.9,11.5-2.9,16.8-6.1,20.8-9.4h0Z"/>
      <path class="st0" d="M601.5,267.2c-1.8,0-2.2.4-2.2,3.2,0,5.8.7,6.5,3.6,6.5,12.9,0,15.4-.7,30.8-.7s21.9.7,34.8.7,3.6-.7,3.6-6.5-.3-3.2-1.8-3.2c-3.2,0-17.9.4-22.6.4s-1.1-63.9-1.1-78.7c0-31.4,16.5-52.4,32.3-52.4s12.9,6.5,12.9,12.6c0,10.9-4,17.3-4,18.4,0,2.2,4.3,7.6,13.2,7.6s18.3-7.2,18.3-19.5-12.9-30-33.7-30-33,14.1-39.8,31.1h-.3c0-26.7-.3-27.1-1.1-27.1-2.2,0-8.6.7-12.5.7-13.6,0-30.5-.4-36.2-.4s-1.8.4-1.8,3.2c0,5.8.7,6.1,3.2,6.1,4,0,16.8-.4,19.7-.4s2.5,42.3,2.5,56.7v14.4c0,12.3,0,57.4-.7,57.4-3.2,0-14-.4-17.2-.4h0v.3Z"/>
      <path class="st0" d="M764.9,93.4c-1.4,0-5.7,1.8-12.9,3.2-4.7,1.1-14.3,2.2-14.3,4.7,0,9,1.4,135.8,1.4,135.8,0,28.5,12.5,44,35.5,44s38.3-26.4,38.3-34.7-3.6-7.6-5.7-7.6-2.2.7-2.5,2.5c-3.6,16.6-13.6,28.9-25.4,28.9s-12.9-4.3-12.9-22.4v-109.1c7.2,0,30.1.4,36.6.4s3.2-.4,3.2-6.1-.3-3.2-1.8-3.2c-4.7,0-31.6.4-38,.4,0-40.5,1.1-30.4,1.1-35.4s-1.4-1.4-2.5-1.4h0Z"/>
      <path class="st0" d="M896.5,124.9c-35.9,0-69.5,27.4-69.5,80.9s24.4,75.1,69.9,75.1,56.7-31.8,56.7-36.1-2.5-8.3-4.7-8.3-2.2.4-2.9,1.8c-6.5,16.3-24,32.9-49.1,32.9s-41.2-15.9-41.2-72.6h91.4c2.2,0,4.7-3.6,4.7-21,0-28.2-24.7-52.7-55.2-52.7h0ZM917.6,190.6h-62c1.8-44,18.6-56.7,39.8-56.7s28.3,20.6,28.3,36.8-3.2,19.9-6.1,19.9h0Z"/>
      <path class="st0" d="M1030.5,125.9c-28.7,0-43.7,19.9-43.7,40.8s11.1,33.2,30.5,40.5l22.9,8.7c19.4,7.2,23.7,18.8,23.7,30.4s-9.7,26.4-26.5,26.4-25.1-5.8-31.9-15.5c-5.7-8-10-21-12.2-28.9-.3-1.8-1.8-2.2-6.1-2.2s-1.4.7-1.4,1.4c0,1.8.7,13,.7,22.8s-1.8,23.1-1.8,25.3,3.2,2.2,5,2.2,4.7-5.8,8.9-5.8c7.5,0,20.4,9,39.1,9s47.7-21.3,47.7-46.9-11.8-34.3-36.2-43.4l-22.9-8.7c-11.8-4.3-19.4-12.3-19.4-24.5s7.5-23.5,23.7-23.5,26.5,14.1,29.4,28.2c.3,2.9,1.4,3.2,6.5,3.2s1.4-.4,1.4-1.8-.3-7.2-.3-15.5,1.8-15.5,1.8-16.3-3.2-2.5-4.3-2.5-4,4-7.2,4-11.8-7.2-27.2-7.2h0l-.2-.2Z"/>
      <path class="st0" d="M321.1,21.9c0-.7-1.4-1.4-2.5-1.4s-5.7,1.8-12.9,3.2c-4.6,1.1-14.3,2.2-14.3,4.7s.7,67.5.7,67.5v108.4c0,12.3,0,63.2-.7,63.2-4.6,0-17.4-.4-21.3-.4s-1.8.4-1.8,3.2c0,5.8.7,6.5,3.2,6.5,12.9,0,19.5-.7,34.9-.7s20.1.7,33.1.7,3.6-.7,3.6-6.5-.4-3.2-1.8-3.2c-4.6,0-15.8.4-20.9.4s-.7-40.1-.7-54.5v-24.2c2.9-30.4,21.1-54.2,43-54.2s28.7,15.9,28.3,35l-.7,34.7c-.3,12.3,0,63.2-.7,63.2-4.7,0-15-.4-20.1-.4s-1.8.4-1.8,3.2c0,5.8.7,6.5,3.6,6.5,12.9,0,17.9-.7,33.3-.7s20.1.7,33,.7,3.2-.7,3.2-6.5-.3-3.2-1.8-3.2c-4.3,0-15.8.4-20.5.4s-.7-29.3-.7-43.7c0,0,.3-6.5.3-39.4s-28.3-59.6-51.6-59.6-39.1,14.4-46.6,33.2h-.4c0-35.4,1.5-131.3,1.5-136.2h0Z"/>
    </g>
    <g>
      <path d="M426.3,35.9c0,1.2-.3,9.8-.3,12.2s.3,9.1.3,10-.3.9-.8.9c-1.7,0-1.9,0-2-1.8-.2-2.2-1.7-4.4-2.5-5.2-1.4-1.5-3.1-2.2-5.4-2.3l-6.3-.2v7.2c0,3.7,0,19.9.4,19.9h12.7c6.3,0,9.6-3.9,11-5.9,1.7-2.2,2.2-5.7,2.7-8.8.2-.9.4-1.1,1.9-1.1s.9,0,.9.6c0,1.2-.4,7.5-.4,10s.3,7.1.3,7.6,0,.6-.5.6c-7.8,0-28.7-.5-33.6-.5s-8,.4-11.4.4-.8-.3-.8-2.1,0-.9.3-.9h7.1c1.8,0,.2-4.8.2-15.8v-22.6c0-3.2,0-14.7-.3-14.7h-6.8c-1.3,0-.8-.3-.8-2.1s0-.9.4-.9c3.3,0,8.2.4,12,.4h9.4l3.6-14.9c.4-1.7,2.7-3.1,5.6-3.1s1.1.2,1.1.8,0,.8-.3,1.3c-.5.9-6.3,13-7.6,15.8,7-.2,15-.4,19.4-.4s1.3.8,1.3,1.2-.3,6-.3,8.6.2,5,.2,6-.3.9-.8.9c-1.9,0-2.1,0-2.5-1.8-.5-2.7-.8-4.3-2.4-6.7-1.4-2.1-4.1-5.2-10.4-5.2h-11.4c-.4,0-.4,18-.4,21.7v1.7l5.9-.2c2.3,0,5.3-1.1,6.5-3,1.2-1.8,1.7-4.2,1.8-7.3,0-.9.4-1.1,1.9-1.1s.9,0,.9.6h0l.2.2Z"/>
      <path d="M475.9,48.6c0,3.8-2.4,5-5,5s-4-.9-4-1.5,1.1-2.2,1.1-5.1-.8-3.4-3.1-3.4c-5.3,0-9,4.6-9,18.4s2.9,15.6,9.7,15.6,9.4-4.4,10.3-9.9c0-.3.2-.5.6-.5.9,0,1.7,1.2,1.7,1.7,0,3.2-4,11.6-14,11.6s-16.8-9.1-16.8-18.5c0-14.6,9.8-21.1,17.6-21.1s11,3.9,11,7.9h0v-.2Z"/>
      <path d="M521,60.6c0,12-9.2,19.8-18.1,19.8s-18.1-8.9-18.1-19.8,9.3-19.8,18.1-19.8,18.1,8.7,18.1,19.8h0ZM512.5,60.5c0-12.1-3.1-17-9.6-17s-9.6,5.3-9.6,17,2.5,16.9,9.6,16.9,9.6-5.2,9.6-16.9h0Z"/>
      <path d="M539.2,55.2c0,3.7,0,21.4.4,21.4h5.4c1.1,0,.4,0,.4.9,0,1.8-.2,2.1-.8,2.1-3.3,0-5.5-.4-9.3-.4s-7,.4-10.3.4-.8-.3-.8-2.1,0-.9.3-.9h6.5c1.8,0,.4-12.6.4-15.8V20c-2.1,0-4.7.2-6.7.2s-.8-.3-.8-2.1,0-.9.3-.9c2.7,0,9,.3,11.7.3s3-.4,3.4-.4.7.3.7.4c0,3.2-.8,8.6-.8,24.9v12.8h0Z"/>
      <path d="M580.8,54.8c0,1.4-.3,4.2-1,4.2h-21.8c0,12,2.5,18.5,10.3,18.5s8.8-3.9,10.8-8.3c.3-.9.5-1,.8-1,.7,0,1.4,1.9,1.4,2.5,0,.9-3.9,9.8-14,9.8s-17.5-9.8-17.5-19.2,7.9-20.3,16.7-20.3,14.2,9.8,14.2,14h0v-.2ZM570.9,56.3c1.5,0,2.1-2.6,2.1-4.6,0-5.8-1.9-8.5-6.2-8.5s-8.3,6-8.8,13.1h12.9Z"/>
      <path d="M623.4,41.9c.3,0,.7.3.7.4,0,0,.3,3,.4,6.4h.2c1.2-4.4,5.4-7.9,10.3-7.9,7.4,0,12.8,4.4,12.8,13v22.7h5.5c1.1,0,.4,0,.4.9,0,1.8-.2,2.1-.8,2.1-3.3,0-5.2-.4-9-.4s-4.5.4-7.8.4-.8-.3-.8-2.1,0-.9.3-.9h3.9c1.8,0,.5-12.6.5-15.8v-10c0-4.1-2.6-6.8-6-6.8s-9.3,5.3-9.3,13,0,19.6.4,19.6h4c1.1,0,.4,0,.4.9,0,1.8-.2,2.1-.8,2.1-3.3,0-4.1-.4-7.9-.4s-5.8.4-9.1.4-.8-.3-.8-2.1,0-.9.3-.9h5.3c1.5,0,.4-7,.4-12.2v-3.6c0-.9,0-9.3-.5-15.9-.4,0-4.1.2-5.3.2s-.8-.3-.8-2.1,0-.9.3-.9c2.5,0,7.7.3,10,.3s2.1-.4,2.7-.4h0Z"/>
      <path d="M686.9,52.2c0,3.2-.3,11.6-.3,15.4s1.3,9.4,3.7,9.4,1.3,0,2-.4c.5-.2.8-.4.9-.4.3,0,.6.3.6,1.1s0,.9-.5,1.4c-.8.8-2.6,1.2-4.1,1.2-5.4,0-8.2-3.8-9.3-6.8-1.8,4-5.1,6.8-9.8,6.8-7.3,0-10.7-5.8-10.7-10.9s1.4-6.4,4.6-7.8c2.6-1.2,10.3-2.5,12.5-3.3,2-.8,2.6-2.1,2.6-3.1v-4c0-5.5-2.1-7.3-5.7-7.3s-4.4,1.4-4.4,3.8.8,3.4.8,4.4-2,1.7-4.1,1.7-4.5-1.4-4.5-4.7,4.1-7.8,12-7.8,13.4,3.6,13.4,11.2h.3ZM679.4,66.9v-7.5c-.6.7-1.6,1.3-2.8,1.6-2.1.7-3.6.9-5.8,1.6-2,.7-3.5,2.3-3.5,5.7,0,6.2,1.9,8.3,4.8,8.3s7.4-5,7.4-9.7h-.1Z"/>
      <path d="M709.4,29.9c.3,0,.7.2.7.4,0,2.9-.2,8.4-.2,12.1l8.7-.2c.3,0,.4,0,.4.9,0,1.8-.2,2.1-.8,2.1-1.6,0-6.5-.3-8.2-.3v26.9c0,4.6,1.4,5.3,2.8,5.3s4-1.6,5.3-6.1c.4-1.4.7-1.4,1-1.4.7,0,1.7,1.3,1.7,1.9,0,2.6-3.2,9-9.1,9s-9.4-4.3-9.4-10.9v-24.5c-.4,0-4.6.2-5.8.2s-.8-.3-.8-2.1,0-.9.4-.9c1.6,0,4.3.3,6.2.3,0-2.1-.5-6.9-.5-9.1s1.1-1.1,4.3-2.1c1.2-.4,3.1-1.4,3.3-1.4h0Z"/>
      <path d="M740,41.9c.3,0,.7.3.7.4,0,3-.2,6.2-.2,10.3v3.4c0,3.7,0,20.6.4,20.6,1.3,0,2.8-.2,4.3-.2s.4,0,.4.9c0,1.8-.2,2.1-.9,2.1-3.3,0-4.4-.4-8.2-.4s-5.4.4-8.8.4-.8-.3-.8-2.1,0-.9.4-.9c1.4,0,3.5.2,4.8.2s.4-11.4.4-15.9v-15.9c-.4,0-4,.2-5.2.2s-.8-.3-.8-2.1,0-.9.4-.9c3.1,0,6.9.3,9.7.3s2.5-.4,3.2-.4h.2ZM741.5,21.7c0,3-2.5,5-4.8,5s-4.8-2.3-4.8-5,2.5-5,4.8-5,4.8,2.4,4.8,5Z"/>
      <path d="M788.5,60.6c0,12-9.2,19.8-18.1,19.8s-18.1-8.9-18.1-19.8,9.2-19.8,18.1-19.8,18.1,8.7,18.1,19.8h0ZM780,60.5c0-12.1-3.1-17-9.6-17s-9.6,5.3-9.6,17,2.5,16.9,9.6,16.9,9.6-5.2,9.6-16.9h0Z"/>
      <path d="M806.6,41.9c.3,0,.7.3.7.4,0,0,.3,3,.4,6.4h.2c1.2-4.4,5.4-7.9,10.3-7.9,7.4,0,12.8,4.4,12.8,13v22.7h5.5c1.1,0,.4,0,.4.9,0,1.8-.2,2.1-.9,2.1-3.3,0-5.2-.4-9-.4s-4.5.4-7.8.4-.8-.3-.8-2.1,0-.9.3-.9h3.9c1.8,0,.5-12.6.5-15.8v-10c0-4.1-2.6-6.8-6-6.8s-9.3,5.3-9.3,13,0,19.6.4,19.6h4c1.1,0,.4,0,.4.9,0,1.8-.2,2.1-.8,2.1-3.3,0-4.1-.4-7.9-.4s-5.8.4-9.1.4-.9-.3-.9-2.1,0-.9.3-.9h5.3c1.5,0,.4-7,.4-12.2v-3.6c0-.9,0-9.3-.5-15.9-.4,0-4.1.2-5.3.2s-.8-.3-.8-2.1,0-.9.3-.9c2.5,0,7.7.3,10,.3s2.1-.4,2.7-.4h.3Z"/>
      <path d="M870.1,52.2c0,3.2-.3,11.6-.3,15.4s1.3,9.4,3.7,9.4,1.3,0,2.1-.4c.5-.2.8-.4.9-.4.3,0,.6.3.6,1.1s0,.9-.5,1.4c-.8.8-2.6,1.2-4.1,1.2-5.4,0-8.2-3.8-9.3-6.8-1.8,4-5.1,6.8-9.8,6.8-7.3,0-10.7-5.8-10.7-10.9s1.4-6.4,4.6-7.8c2.6-1.2,10.3-2.5,12.5-3.3,2-.8,2.6-2.1,2.6-3.1v-4c0-5.5-2.1-7.3-5.7-7.3s-4.4,1.4-4.4,3.8.8,3.4.8,4.4-2,1.7-4.1,1.7-4.5-1.4-4.5-4.7,4.1-7.8,12-7.8,13.4,3.6,13.4,11.2h.2ZM862.6,66.9v-7.5c-.6.7-1.6,1.3-2.8,1.6-2.1.7-3.6.9-5.8,1.6-2,.7-3.5,2.3-3.5,5.7,0,6.2,1.9,8.3,4.8,8.3s7.4-5,7.4-9.7h-.1Z"/>
      <path d="M894.2,55.2c0,3.7,0,21.4.4,21.4h5.4c1.1,0,.4,0,.4.9,0,1.8-.2,2.1-.8,2.1-3.3,0-5.5-.4-9.3-.4s-7,.4-10.3.4-.8-.3-.8-2.1,0-.9.3-.9h6.5c1.8,0,.4-12.6.4-15.8V20c-2.1,0-4.7.2-6.7.2s-.8-.3-.8-2.1,0-.9.3-.9c2.7,0,9,.3,11.7.3s3-.4,3.4-.4.7.3.7.4c0,3.2-.8,8.6-.8,24.9v12.8h0Z"/>
      <path d="M935.9,54.8c0,1.4-.3,4.2-1,4.2h-21.8c0,12,2.5,18.5,10.3,18.5s8.8-3.9,10.8-8.3c.3-.9.5-1,.8-1,.7,0,1.4,1.9,1.4,2.5,0,.9-3.9,9.8-14,9.8s-17.5-9.8-17.5-19.2,7.9-20.3,16.7-20.3,14.2,9.8,14.2,14h0v-.2ZM926,56.3c1.5,0,2.1-2.6,2.1-4.6,0-5.8-1.9-8.5-6.2-8.5s-8.3,6-8.8,13.1h12.9Z"/>
      <path d="M992.3,74c-1.9,3.1-5.3,6.3-10.8,6.3-10.1,0-16-8.8-16-19.8s8-19.6,16.3-19.6,8.6,3.3,10.2,7.1h0v-28.1c-.4,0-6.3.2-7.5.2s-.8-.3-.8-2.1,0-.9.4-.9c3.1,0,9,.3,12.3.3s3.1-.4,3.5-.4.7.3.7.4c0,3.2-.8,8.6-.8,24.9v13.4c0,3.7,0,20.9.4,20.9,1.2,0,4-.2,5.4-.2s.4,0,.4.9c0,1.8-.2,2.1-.8,2.1-3.3,0-4.4-.3-8.2-.3s-2.6.4-3.2.4-1.3-3.7-1.3-5.5h-.2ZM982.9,77.5c4.8,0,9.6-3.8,9.6-16.2s-5.2-17.5-10.1-17.5-8.5,4.2-8.5,16.7,2.7,17.1,9,17.1h0Z"/>
      <path d="M1041,54.8c0,1.4-.3,4.2-1,4.2h-21.8c0,12,2.5,18.5,10.3,18.5s8.8-3.9,10.8-8.3c.3-.9.5-1,.8-1,.7,0,1.4,1.9,1.4,2.5,0,.9-3.9,9.8-14,9.8s-17.5-9.8-17.5-19.2,7.9-20.3,16.7-20.3,14.2,9.8,14.2,14h0v-.2ZM1031,56.3c1.5,0,2.1-2.6,2.1-4.6,0-5.8-1.9-8.5-6.2-8.5s-8.3,6-8.8,13.1h12.9Z"/>
      <path d="M1069.7,42.6c.9,0,1.4-1.2,1.9-1.2s1.4.5,1.4.9-.3,2.9-.3,4.2c0,1.9.3,4,.3,4.3s-.3.8-.8.8c-1.5,0-1.8,0-1.9-.9-.5-3.2-2.9-7.1-7.1-7.1s-5.8,2.6-5.8,5.3,1.8,4.9,4.4,5.9l5.9,2.2c6.3,2.3,9.3,5.1,9.3,11.4s-5.8,12.1-12.2,12.1-7.1-2.3-9.9-2.3-1.9,1.6-2.6,1.6-1.9-.4-1.9-.8.3-2.4.4-5v-7.3c0-2.1.3-.6.7-.6.8,0,1.7,0,1.8.6.4,1.5,1.6,5,3.2,7.3,1.4,1.9,4.7,3.6,8.1,3.6s6.2-2.7,6.2-5.7-1.2-5.9-5.8-7.6c-5.8-2.1-4-1.4-5.8-2.1-5.6-2.1-8.1-5.7-8.1-10.6s3.6-10.4,11.8-10.4,5.6,1.7,6.7,1.7h0v-.3Z"/>
    </g>
  </g>
  <g>
    <g>
      <g>
        <path class="st0" d="M1419.2,85.1c-3.2,0-6-.6-8.4-1.9-2.4-1.3-4.3-3.1-5.6-5.3-1.3-2.3-2-4.8-2-7.7v-27.8h4v27.6c0,2.2.5,4.2,1.5,5.9s2.4,3.1,4.2,4.1c1.8,1,3.9,1.5,6.3,1.5s4.5-.5,6.3-1.5,3.2-2.4,4.2-4.1c1-1.7,1.5-3.7,1.5-5.9v-27.6h4v27.8c0,2.9-.7,5.4-2,7.7s-3.2,4-5.6,5.3-5.2,1.9-8.4,1.9h0Z"/>
        <path class="st0" d="M1494,42.2v42.1h-4v-42.1h4Z"/>
        <path class="st0" d="M1544.2,84.4v-42.1h24.6v3.6h-20.6v15.6h19.3v3.6h-19.3v15.8h21v3.6h-25Z"/>
        <path class="st0" d="M1607.8,84.4l-9.7-17.8c.6-.2,1.2-.5,1.8-.8,2-1.1,3.5-2.5,4.6-4.4s1.5-4.1,1.5-6.5-.5-4.7-1.5-6.6-2.6-3.4-4.6-4.5-4.5-1.6-7.5-1.6h-13.8v42.1h4v-16.9h11.3l9.2,17h4.7ZM1592.3,63.8h-9.6v-18h9.6c2.2,0,4,.4,5.4,1.1s2.5,1.8,3.2,3.2,1.1,3,1.1,4.8-.4,3.4-1.1,4.7-1.8,2.4-3.2,3.1c-1.4.7-3.2,1.1-5.4,1.1h0Z"/>
        <path class="st0" d="M1628.1,85.1c-2.9,0-5.4-.5-7.5-1.4s-3.8-2.3-5-4-1.9-3.7-2.1-5.9h4.1c.2,1.7.7,3.1,1.7,4.2.9,1.1,2.2,2,3.7,2.6s3.2.9,5.1.9,3.9-.4,5.6-1.1c1.6-.7,2.9-1.7,3.8-2.9s1.4-2.7,1.4-4.4-.4-2.6-1.1-3.5-1.8-1.8-3.1-2.4c-1.3-.7-2.8-1.2-4.6-1.8l-5-1.4c-3.4-1-5.9-2.4-7.8-4.1s-2.7-4-2.7-6.6.6-4.3,1.8-6c1.2-1.7,2.9-3.1,5-4.1s4.4-1.5,7-1.5,5,.5,7,1.5,3.6,2.3,4.8,4c1.2,1.7,1.8,3.6,1.9,5.7h-3.9c-.2-2.3-1.3-4.2-3.1-5.5-1.8-1.4-4.1-2-6.8-2s-3.6.3-5.1,1-2.6,1.6-3.4,2.7-1.2,2.5-1.2,4,.4,2.7,1.2,3.6,1.9,1.8,3.2,2.4,2.6,1.1,3.9,1.5l4.4,1.3c1.4.4,2.7.9,4.1,1.4,1.4.6,2.6,1.3,3.7,2.2s2,1.9,2.7,3.2c.7,1.2,1,2.8,1,4.5s-.6,4.3-1.8,6.1-2.8,3.2-5.1,4.3c-2.2,1-4.8,1.6-7.9,1.6h.1Z"/>
        <path class="st0" d="M1656,42.2v42.1h-4v-42.1h4Z"/>
        <path class="st0" d="M1664.7,45.8v-3.6h30.7v3.6h-13.3v38.6h-4v-38.6h-13.4,0Z"/>
        <path class="st0" d="M1704,84.4v-42.1h24.6v3.6h-20.6v15.6h19.3v3.6h-19.3v15.8h21v3.6h-25ZM1714.9,37.9l4.1-8.1h4.4l-5.2,8.1h-3.3Z"/>
        <path class="st0" d="M1464.6,144.5h11.2l-14.5-42.1h-13.4l-14.1,42.1h11.1l2.8-9h14l2.8,9h0ZM1450.1,127.9l.6-1.8c.9-3,1.7-6.3,2.5-9.8.4-2,.9-4,1.4-6l1.5,6c.9,3.5,1.8,6.7,2.7,9.8l.6,1.8h-9.3,0Z"/>
        <path class="st0" d="M1503.6,144.5h10.9l-8.8-16.1h0c2.3-1.1,4.1-2.6,5.4-4.6s1.9-4.5,1.9-7.4-.6-5.4-1.8-7.4c-1.2-2.1-3-3.7-5.3-4.9s-5-1.7-8.2-1.7h-17.2v42.1h10v-14.5h5.4l7.7,14.5h0ZM1490.4,110.4h5.2c1.6,0,2.9.2,3.9.7,1.1.4,1.8,1.1,2.4,2s.8,2,.8,3.3-.3,2.4-.8,3.2c-.5.9-1.3,1.5-2.4,1.9s-2.3.6-3.9.6h-5.2v-11.6h0Z"/>
        <path class="st0" d="M1528.8,102.3v42.1h-10v-42.1h10Z"/>
        <path class="st0" d="M1551.6,145.1c-3.5,0-6.6-.5-9.2-1.6s-4.6-2.7-6.1-4.8-2.2-4.9-2.3-8.1h9.6c0,1.4.5,2.5,1.1,3.4s1.5,1.6,2.7,2.1c1.1.5,2.5.7,4,.7s2.6-.2,3.6-.6,1.8-.9,2.3-1.6.8-1.5.8-2.4-.2-1.5-.8-2.1c-.5-.6-1.2-1.1-2.2-1.5s-2.3-.8-3.8-1.2l-4.5-1c-3.6-.8-6.5-2.2-8.6-4.1s-3.1-4.4-3.1-7.6.7-4.9,2.1-6.9,3.3-3.5,5.8-4.6,5.3-1.6,8.5-1.6,6.1.5,8.5,1.6,4.2,2.6,5.6,4.6c1.3,2,2,4.3,2,6.9h-9.6c0-1.5-.8-2.7-1.9-3.6s-2.7-1.3-4.7-1.3-2.4.2-3.3.5-1.6.8-2,1.4-.7,1.3-.7,2.1.2,1.6.8,2.2,1.2,1.1,2.2,1.5c.9.4,2,.7,3.3,1l3.7.9c2,.4,3.8,1,5.4,1.8,1.6.7,2.9,1.6,4.1,2.7,1.1,1,1.9,2.2,2.5,3.6s.9,2.9.9,4.5c0,2.7-.7,5-2,6.9s-3.2,3.4-5.7,4.4-5.5,1.5-8.9,1.5h0v.3Z"/>
        <path class="st0" d="M1419.4,205.2c-3.5,0-6.6-.5-9.2-1.6s-4.6-2.7-6.1-4.8-2.2-4.9-2.3-8.1h9.6c0,1.4.5,2.5,1.1,3.4s1.5,1.6,2.7,2.1c1.1.5,2.5.7,4,.7s2.6-.2,3.6-.6,1.8-.9,2.3-1.6.8-1.5.8-2.4-.2-1.5-.8-2.1c-.5-.6-1.2-1.1-2.2-1.5s-2.3-.8-3.8-1.2l-4.5-1c-3.6-.8-6.5-2.2-8.6-4.1s-3.1-4.4-3.1-7.6.7-4.9,2.1-6.9,3.3-3.5,5.8-4.6,5.3-1.6,8.5-1.6,6.1.5,8.5,1.6,4.2,2.6,5.6,4.6,2,4.3,2,6.9h-9.6c0-1.5-.8-2.7-1.9-3.6s-2.7-1.3-4.7-1.3-2.4.2-3.3.5-1.6.8-2,1.4-.7,1.3-.7,2.1.2,1.6.8,2.2,1.2,1.1,2.2,1.5c.9.4,2,.7,3.3,1l3.7.9c2,.4,3.8,1,5.4,1.8,1.6.7,2.9,1.6,4.1,2.7,1.1,1,1.9,2.2,2.5,3.6s.9,2.9.9,4.5c0,2.7-.7,5-2,6.9s-3.2,3.4-5.7,4.4-5.5,1.5-8.9,1.5h0v.3Z"/>
        <path class="st0" d="M1460.4,205.2c-3.8,0-7.2-.8-10.2-2.5s-5.4-4.1-7.1-7.4c-1.8-3.2-2.6-7.1-2.6-11.7s.9-8.6,2.6-11.8,4.2-5.7,7.2-7.4c3-1.7,6.4-2.5,10.1-2.5s4.8.3,7,1,4,1.7,5.7,3,3,2.9,4,4.9,1.7,4.1,2,6.5h-10.1c-.2-1-.5-2-.9-2.8s-1-1.5-1.7-2.1-1.5-1-2.5-1.3-2-.5-3.1-.5c-2.1,0-3.8.5-5.3,1.5s-2.7,2.5-3.4,4.4c-.8,1.9-1.2,4.2-1.2,7s.4,5.2,1.2,7.1c.8,1.9,2,3.4,3.4,4.3s3.2,1.4,5.2,1.4,2.2-.1,3.1-.5c.9-.3,1.8-.7,2.5-1.3s1.3-1.3,1.8-2.1.8-1.8,1-2.8h10.1c-.2,1.9-.7,3.7-1.6,5.6-.9,1.8-2.1,3.5-3.7,5s-3.5,2.7-5.7,3.6-4.8,1.3-7.6,1.3h-.2Z"/>
        <path class="st0" d="M1494.4,162.4v42.1h-10v-42.1h10Z"/>
        <path class="st0" d="M1501,204.6v-42.1h29.2v8.1h-19.3v8.7h17.7v8h-17.7v9.2h19.2v8.1h-29.2.1Z"/>
        <path class="st0" d="M1599.7,205.2c-3.8,0-7.2-.8-10.2-2.5s-5.4-4.1-7.1-7.4c-1.8-3.2-2.6-7.1-2.6-11.7s.9-8.6,2.6-11.8,4.2-5.7,7.2-7.4c3-1.7,6.4-2.5,10.1-2.5s4.8.3,7,1,4,1.7,5.7,3,3,2.9,4,4.9,1.7,4.1,2,6.5h-10.1c-.2-1-.5-2-.9-2.8s-1-1.5-1.7-2.1-1.5-1-2.5-1.3-2-.5-3.1-.5c-2.1,0-3.8.5-5.3,1.5s-2.7,2.5-3.4,4.4c-.8,1.9-1.2,4.2-1.2,7s.4,5.2,1.2,7.1c.8,1.9,2,3.4,3.4,4.3s3.2,1.4,5.2,1.4,2.2-.1,3.1-.5c.9-.3,1.8-.7,2.5-1.3s1.3-1.3,1.8-2.1c.5-.8.8-1.8,1-2.8h10.1c-.2,1.9-.7,3.7-1.6,5.6-.9,1.8-2.1,3.5-3.7,5s-3.5,2.7-5.7,3.6-4.8,1.3-7.6,1.3h-.2Z"/>
        <path class="st0" d="M1623.8,204.6v-42.1h29.2v8.1h-19.3v8.7h17.7v8h-17.7v9.2h19.2v8.1h-29.2.1Z"/>
        <path class="st0" d="M1675.3,205.2c-3.5,0-6.6-.5-9.2-1.6s-4.6-2.7-6.1-4.8-2.2-4.9-2.3-8.1h9.6c0,1.4.5,2.5,1.1,3.4s1.5,1.6,2.7,2.1,2.5.7,4,.7,2.6-.2,3.6-.6,1.8-.9,2.3-1.6.8-1.5.8-2.4-.2-1.5-.8-2.1c-.5-.6-1.2-1.1-2.2-1.5s-2.3-.8-3.8-1.2l-4.5-1c-3.6-.8-6.5-2.2-8.6-4.1s-3.1-4.4-3.1-7.6.7-4.9,2.1-6.9,3.3-3.5,5.8-4.6,5.3-1.6,8.5-1.6,6.1.5,8.5,1.6,4.2,2.6,5.6,4.6c1.3,2,2,4.3,2,6.9h-9.6c0-1.5-.8-2.7-1.9-3.6s-2.7-1.3-4.7-1.3-2.4.2-3.3.5-1.6.8-2,1.4-.7,1.3-.7,2.1.2,1.6.8,2.2,1.2,1.1,2.2,1.5c.9.4,2,.7,3.3,1l3.7.9c2,.4,3.8,1,5.4,1.8s2.9,1.6,4.1,2.7c1.1,1,1.9,2.2,2.5,3.6s.9,2.9.9,4.5c0,2.7-.7,5-2,6.9s-3.2,3.4-5.7,4.4-5.5,1.5-8.9,1.5h0v.3Z"/>
        <path class="st0" d="M1439.7,264.7l-6.5-7.4c.3-.4.6-.7.8-1,1.1-1.7,1.8-3.6,2.4-5.7s.8-4.5.8-7h-8c0,2.1-.4,3.9-1.1,5.6-.2.5-.5,1-.8,1.5l-6.2-7,2.3-1.6c1.2-.9,2.2-1.8,3-2.8s1.5-2.1,1.9-3.3c.4-1.2.7-2.4.7-3.7,0-1.9-.4-3.6-1.4-5.2-.9-1.6-2.2-2.8-3.8-3.7-1.7-.9-3.6-1.4-5.9-1.4s-4.5.5-6.2,1.5c-1.8,1-3.2,2.3-4.1,4s-1.5,3.6-1.5,5.6.4,3.6,1.1,5.2,1.6,3,2.7,4.4h0c-1.5,1-2.8,2-4,3-1.2,1.1-2,2.2-2.7,3.5s-.9,2.7-.9,4.4.6,4.1,1.7,5.9c1.2,1.8,2.8,3.2,4.9,4.3s4.7,1.6,7.6,1.6,3.7-.3,5.7-.8c1.8-.5,3.5-1.3,5.1-2.4l2.4,2.6h10.1,0ZM1414.7,231.4c.3-.5.7-.9,1.3-1.2s1.2-.4,1.9-.4c1.2,0,2,.3,2.6.9s.9,1.3.9,2.1,0,1-.3,1.5c-.2.5-.5,1-.9,1.4-.4.5-.9.9-1.5,1.3l-2.1,1.3c-.7-.9-1.2-1.7-1.6-2.5-.4-.9-.7-1.8-.7-2.6s.2-1.3.4-1.8h0ZM1421.4,256.5c-1.4.7-2.9,1-4.4,1s-2-.2-2.8-.5-1.4-.9-1.9-1.6c-.4-.7-.7-1.5-.7-2.4s.3-1.9.8-2.6,1.2-1.4,2.1-2l7.2,7.9c-.2,0-.3.2-.5.3h.2Z"/>
        <path class="st0" d="M1451.5,264.7v-42.1h10v34h17.6v8.1h-27.6Z"/>
        <path class="st0" d="M1484.3,264.7v-42.1h29.2v8.1h-19.3v8.7h17.7v8h-17.7v9.2h19.2v8.1h-29.2.1Z"/>
        <path class="st0" d="M1518.2,230.7v-8.1h34.4v8.1h-12.2v34h-10v-34h-12.2Z"/>
        <path class="st0" d="M1556.3,230.7v-8.1h34.4v8.1h-12.2v34h-10v-34h-12.2Z"/>
        <path class="st0" d="M1619,264.7h10.9l-8.8-16.1h0c2.3-1.1,4.1-2.6,5.4-4.6s1.9-4.5,1.9-7.4-.6-5.4-1.8-7.4-3-3.7-5.3-4.9-5-1.7-8.2-1.7h-17.2v42.1h10v-14.5h5.4l7.7,14.5h0ZM1605.8,230.6h5.2c1.6,0,2.9.2,3.9.7s1.8,1.1,2.4,2,.8,2,.8,3.3-.3,2.4-.8,3.2c-.5.9-1.3,1.5-2.4,1.9s-2.3.6-3.9.6h-5.2v-11.6h0Z"/>
        <path class="st0" d="M1634.7,264.7v-42.1h29.2v8.1h-19.3v8.7h17.7v8h-17.7v9.2h19.2v8.1h-29.2.1Z"/>
        <path class="st0" d="M1686.3,265.3c-3.5,0-6.6-.5-9.2-1.6s-4.6-2.7-6.1-4.8-2.2-4.9-2.3-8.1h9.6c0,1.4.5,2.5,1.1,3.4s1.5,1.6,2.7,2.1c1.1.5,2.5.7,4,.7s2.6-.2,3.6-.6,1.8-.9,2.3-1.6.8-1.5.8-2.4-.2-1.5-.8-2.1c-.5-.6-1.2-1.1-2.2-1.5s-2.3-.8-3.8-1.2l-4.5-1c-3.6-.8-6.5-2.2-8.6-4.1s-3.1-4.4-3.1-7.6.7-4.9,2.1-6.9,3.3-3.5,5.8-4.6,5.3-1.6,8.5-1.6,6.1.5,8.5,1.6,4.2,2.6,5.6,4.6c1.3,2,2,4.3,2,6.9h-9.6c0-1.5-.8-2.7-1.9-3.6s-2.7-1.3-4.7-1.3-2.4.2-3.3.5-1.6.8-2,1.4-.7,1.3-.7,2.1.2,1.6.8,2.2,1.2,1.1,2.2,1.5c.9.4,2,.7,3.3,1l3.7.9c2,.4,3.8,1,5.4,1.8s2.9,1.6,4.1,2.7c1.1,1,1.9,2.2,2.5,3.6s.9,2.9.9,4.5c0,2.7-.7,5-2,6.9s-3.2,3.4-5.7,4.4-5.5,1.5-8.9,1.5h0v.3Z"/>
      </g>
      <path class="st0" d="M1433.9,109.3c-1.2-2.2-3-3.9-5.3-5.1s-5-1.8-8.2-1.8h-17.2v42.1h10v-13.1h7c3.2,0,6-.6,8.3-1.8,2.3-1.2,4.1-2.9,5.4-5s1.9-4.7,1.9-7.6-.6-5.4-1.8-7.6h-.1ZM1424.6,120.3c-.5,1-1.3,1.7-2.4,2.3-1.1.5-2.4.8-3.9.8h-5.2v-13h5.2c1.6,0,2.9.3,3.9.8,1.1.5,1.9,1.3,2.4,2.2s.8,2.1.8,3.4-.3,2.4-.8,3.4h0Z"/>
      <path class="st0" d="M1563.9,162.4v17.9c0,1.2,0,2.7,0,4.5s.2,3.6.3,5.5c0,.7,0,1.3,0,2-.3-.9-.7-1.7-1-2.5-.7-1.6-1.4-3.1-2.2-4.5-.7-1.4-1.5-2.6-2.2-3.9l-11.8-19h-11v42.1h10.2v-17.5c0-1.1,0-2.4,0-4,0-1.6-.2-3.4-.3-5.3,0-1,0-2-.2-3,.5,1.1,1,2.1,1.4,3,.8,1.7,1.6,3.2,2.3,4.7s1.7,3,2.6,4.5l10.8,17.5h11v-42.1h-10.3.3Z"/>
      <path class="st0" d="M1474.9,42.2v31c0,1.2,0,2.4,0,3.7,0,.9,0,1.8.2,2.8-.5-.9-.9-1.8-1.4-2.6-.7-1.2-1.4-2.4-2.1-3.4s-1.2-2-1.8-2.8l-19.2-28.6h-4.6v42.1h4v-29.8c0-1.2,0-2.6,0-4.1,0-1.1,0-2.2,0-3.4.8,1.3,1.5,2.5,2.1,3.6.8,1.4,1.6,2.7,2.3,3.8.7,1.1,1.4,2.2,2.1,3.2l17.9,26.6h4.7v-42.1h-4.1Z"/>
      <path class="st0" d="M1532.8,42.2l-9.8,27.6c-.5,1.4-1.1,3.2-1.8,5.3-.6,1.7-1.2,3.7-1.9,6-.7-2.2-1.3-4.2-1.9-6-.7-2.1-1.3-3.9-1.8-5.3l-10-27.6h-4.2l15.6,42.1h4.7l15.5-42.1h-4.4Z"/>
    </g>
    <g>
      <path class="st0" d="M1346.3,46.7v146.8c0,45.9-37.3,83.2-83.2,83.2s-83.2-37.3-83.2-83.2V46.7h166.3M1350.9,42.2h-175.4v151.4c0,48.4,39.3,87.7,87.7,87.7s87.7-39.4,87.7-87.7V42.2h0Z"/>
      <path class="st0" d="M1287,156.5c-4.1-2.6-10.9-6.9-15.8-9.9v-11.6h15.7c14,0,24.8-11.7,24.8-26.1s-10.8-26.1-24.8-26.1h-49.6v.9s8.4,4.2,8.4,19h0c-2.3,0-8.7-.3-16.3,3.5-4.1,2-7.7,5.1-10.3,9.1-.2.2-.3.5-.5.8-7.6,12.4-3.8,28.1,8.8,36.1,11.5,7.4,44.3,27.1,50.8,31h0c4.5,2.7,7.3,6.4,7.3,10.6,0,6-5.9,11.2-14.3,13.5v-21.5l-25.5-15.4v37c-8.5-2.2-14.3-7.4-14.5-13.5-.2-7.1,5-12.8,10-16.6l-20-12.3c-4.1,4.5-6.5,9.8-6.5,15.4,0,13.3,13,24.5,30.9,28.2,0,14.1-8.4,18.2-8.4,18.2v.9h70.8l3-18.2h-.9c-8.7,10.2-22.5,15.6-38.9,16.9v-17.8c17.8-3.7,30.5-14.9,30.8-28.1.2-11.3-7.4-19-14.9-23.7h0v-.3ZM1271.1,83.9c12.3,0,17.4,11,17.4,24.9s-5.2,24.8-17.4,24.9v-49.8h0ZM1245.6,103.8v27.3c-5-3-8.3-5-8.3-5-5.7-3.5-7.6-10.9-4.1-16.6,2.3-3.8,6.3-5.8,12.4-5.8h0Z"/>
    </g>
  </g>
</svg>