<?xml version="1.0" encoding="UTF-8"?>
<svg width="205px" height="164px" viewBox="0 0 205 164" version="1.1" xmlns="http://www.w3.org/2000/svg" xmlns:xlink="http://www.w3.org/1999/xlink">
    <!-- Generator: Sketch 61.2 (89653) - https://sketch.com -->
    <title>Group 6</title>
    <desc>Created with Sketch.</desc>
    <g id="Page-1" stroke="none" stroke-width="1" fill="none" fill-rule="evenodd">
        <g id="HOME" transform="translate(-30.000000, -88.000000)">
            <g id="Group-6" transform="translate(30.000000, 88.000000)">
                <polygon id="Stroke-1" stroke="#FFFFFF" points="18.5 9.5001 69.5 9.5001 69.5 163.5001 18.5 163.5001"></polygon>
                <polyline id="Stroke-3" stroke="#FFFFFF" points="120.5 0.9661 120.5 155.5001 69.5 155.5001 69.5 0.9661"></polyline>
                <polyline id="Stroke-5" stroke="#FFFFFF" points="171.5 0.9661 171.5 163.5001 120.5 163.5001 120.5 0.9661"></polyline>
                <g id="Group-9" stroke="#FFFFFF">
                    <polyline id="Stroke-7" points="0 43.9998 185 43.9998 185 0.9658"></polyline>
                </g>
                <polyline id="Stroke-10" stroke="#FFFFFF" points="0 93.9998 147 93.9998 147 43.9998 0 43.9998"></polyline>
                <polygon id="Stroke-12" stroke="#FFFFFF" points="18.5 130.5 204.5 130.5 204.5 79.5 18.5 79.5"></polygon>
                <path d="M103.4561,109.7078 C98.6591,109.7078 93.8951,110.8078 89.1801,113.0018 C84.4591,115.2018 79.7391,117.5888 75.0231,120.1808 C70.3031,122.7638 65.5471,125.1218 60.7471,127.2368 C55.9501,129.3518 50.9111,130.4098 45.6311,130.4098 C42.7541,130.4098 39.7141,129.8268 36.5121,128.6488 C33.3131,127.4718 30.4321,125.8658 27.8771,123.8208 C25.3161,121.7898 23.2001,119.3548 21.5191,116.5308 C19.8391,113.7058 19.0001,110.6448 19.0001,107.3508 C19.0001,101.3938 20.9971,95.7478 24.9981,90.4128 C28.9941,85.0798 33.7551,80.1748 39.2741,75.7098 C44.7901,71.2358 50.3911,67.1978 56.0691,63.5888 C61.7461,59.9828 66.2671,56.9228 69.6261,54.4098 C70.4261,53.7868 71.4251,52.8448 72.6261,51.5898 C73.8261,50.3358 74.4261,49.5508 74.4261,49.2368 C74.9031,46.8828 74.4631,44.3748 73.1041,41.7048 C71.7441,39.0408 69.9011,36.5698 67.5871,34.2968 C65.2631,32.0228 62.7051,30.0968 59.9081,28.5298 C57.1081,26.9648 54.5891,26.1758 52.3491,26.1758 C49.7901,26.1758 47.5521,26.8838 45.6311,28.2958 C43.7121,29.7058 41.8701,31.2348 40.1131,32.8808 C38.3521,34.5308 36.5121,36.0598 34.5951,37.4718 C32.6761,38.8848 30.5141,39.5888 28.1161,39.5888 C23.1571,39.1188 22.0341,37.3158 24.7571,34.1778 C27.6361,30.8838 29.7941,28.2958 31.2341,26.4098 C33.9531,24.5298 37.1921,22.1398 40.9541,19.2378 C44.7081,16.3348 48.7511,13.5518 53.0691,10.8808 C57.3881,8.2188 61.7851,5.9028 66.2671,3.9428 C70.7411,1.9818 75.0641,0.9998 79.2231,0.9998 C83.5441,0.9998 87.4601,1.9038 90.9791,3.7068 C94.4961,5.5098 97.7361,7.8638 100.6971,10.7648 C103.6551,13.6708 106.3381,16.9218 108.7371,20.5288 C111.1341,24.1388 113.2941,27.8238 115.2131,31.5898 C115.8501,32.5318 117.0511,34.6878 118.8131,38.0618 C120.5701,41.4348 122.6101,45.3938 124.9311,49.9398 C127.2491,54.4928 129.6881,59.3168 132.2511,64.4148 C134.8061,69.5118 137.2061,74.3378 139.4471,78.8828 C141.6841,83.4328 143.6451,87.3958 145.3261,90.7688 C147.0041,94.1388 148.1641,96.3758 148.8041,97.4688 C149.9231,99.3558 150.8811,100.8478 151.6851,101.9418 C152.4811,103.0418 153.2811,104.1418 154.0841,105.2338 C154.8821,106.3358 155.5211,107.1158 156.0031,107.5918 C156.8031,108.6858 157.8031,109.3158 159.0041,109.4738 C160.2031,109.6288 161.3601,109.7078 162.4831,109.7078 C163.7611,109.7078 164.9191,109.8628 165.9621,110.1778 C167.0001,110.4968 167.6771,111.2768 168.0001,112.5338 C163.3601,119.1208 157.8401,124.1758 151.4451,127.7058 C145.0421,131.2328 138.0101,132.9998 130.3301,132.9998 C126.8101,132.9998 124.0101,131.7858 121.9321,129.3518 C119.8511,126.9228 117.9751,124.2608 116.2941,121.3528 C114.6161,118.4538 112.8141,115.7848 110.8931,113.3558 C108.9771,110.9218 106.4941,109.7078 103.4561,109.7078 M52.8301,88.2958 C52.8301,91.1208 53.5091,93.7068 54.8681,96.0628 C56.2261,98.4128 58.0251,100.4158 60.2691,102.0618 C62.5071,103.7098 64.9471,104.9998 67.5871,105.9438 C70.2271,106.8818 72.9021,107.3508 75.6231,107.3508 C77.2201,107.3508 79.2231,107.1158 81.6231,106.6478 C84.0211,106.1788 86.3021,105.4338 88.4601,104.4108 C90.6211,103.3948 92.4561,102.1408 93.9781,100.6488 C95.4961,99.1588 96.2591,97.3978 96.2591,95.3538 C96.2591,95.0398 96.2161,94.6148 96.1401,94.0608 C96.0581,93.5138 96.0191,93.1578 96.0191,93.0028 L84.0211,69.4688 C81.9401,69.3188 80.6631,69.2348 80.1831,69.2348 C77.4601,69.2348 74.5461,69.6308 71.4251,70.4128 C68.3051,71.1988 65.3441,72.3778 62.5481,73.9418 C59.7471,75.5098 57.4271,77.5108 55.5881,79.9388 C53.7491,82.3738 52.8301,85.1568 52.8301,88.2958" id="Fill-14" fill="#FFFFFF"></path>
            </g>
        </g>
    </g>
</svg>