<?xml version="1.0" encoding="UTF-8"?>
<svg width="145px" height="150px" viewBox="0 0 145 150" version="1.1" xmlns="http://www.w3.org/2000/svg" xmlns:xlink="http://www.w3.org/1999/xlink">
    <!-- Generator: Sketch 61.2 (89653) - https://sketch.com -->
    <title>Group 2</title>
    <desc>Created with Sketch.</desc>
    <g id="Page-1" stroke="none" stroke-width="1" fill="none" fill-rule="evenodd">
        <g id="CONSULT_notice" transform="translate(-34.000000, -76.000000)">
            <g id="Group-2" transform="translate(35.000000, 77.000000)">
                <g id="Group-13" stroke="#FFD500" stroke-width="0.5">
                    <polygon id="Stroke-1" points="12.4345714 148.531915 50.8742449 148.531915 50.8742449 31.2015957 12.4345714 31.2015957"></polygon>
                    <polygon id="Stroke-3" points="51.4266122 148.531915 89.8662857 148.531915 89.8662857 0 51.4266122 0"></polygon>
                    <polygon id="Stroke-5" points="90 131.705851 129 131.705851 129 12.7058511 90 12.7058511"></polygon>
                    <polygon id="Stroke-6" points="-1.42108547e-14 59.4072072 143.152 59.4072072 143.152 20.7058511 -1.42108547e-14 20.7058511"></polygon>
                    <polygon id="Stroke-8" points="-1.42108547e-14 98.4072072 143.152 98.4072072 143.152 59.7058511 -1.42108547e-14 59.7058511"></polygon>
                    <polygon id="Stroke-9" points="-1.42108547e-14 137.407207 143.152 137.407207 143.152 98.7058511 -1.42108547e-14 98.7058511"></polygon>
                </g>
                <path d="M45,101.502619 C45,103.949198 45.5782619,106.187966 46.736538,108.227655 C47.8930618,110.262105 49.426332,111.99619 51.3381009,113.421178 C53.2446128,114.847912 55.3228511,115.96555 57.5728155,116.782823 C59.8210277,117.594856 62.1007814,118 64.419086,118 C65.7788776,118 67.4856263,117.797428 69.5305707,117.392284 C71.5737627,116.985395 73.5170732,116.341007 75.3552451,115.455628 C77.1969216,114.575488 78.7599811,113.489284 80.0566896,112.198762 C81.3498934,110.908239 82,109.383712 82,107.612954 C82,107.342277 81.9632015,106.973805 81.8983661,106.49357 C81.8282737,106.020321 81.7949799,105.71297 81.7949799,105.578505 L71.5737627,85.2025718 C69.8004262,85.073345 68.7122425,85 68.3039545,85 C65.9838977,85 63.5008762,85.3422766 60.8426237,86.0198444 C58.1843713,86.7009049 55.6610466,87.7207493 53.279659,89.0758851 C50.8930144,90.4327671 48.9164101,92.1651056 47.3498461,94.2676615 C45.783282,96.3754564 45,98.7853628 45,101.502619 M75.8176083,122.880096 C71.7942382,124.76389 67.7708681,126.806537 63.7510042,129.025304 C59.7276341,131.237165 55.6744613,133.255638 51.5827202,135.066912 C47.4944853,136.876459 43.1993843,137.782959 38.6991704,137.782959 C36.2465801,137.782959 33.6554947,137.283953 30.9259142,136.275579 C28.1998399,135.267206 25.7437434,133.892779 23.5663901,132.141938 C21.3837776,130.403184 19.5798352,128.319097 18.1475505,125.901763 C16.7152658,123.482703 16,120.863349 16,118.041975 C16,112.943127 17.7022625,108.110186 21.1120467,103.543151 C24.5183248,98.9778437 28.5767569,94.7785893 33.2803307,90.9557484 C37.9821515,87.1260009 42.7558494,83.6692134 47.5961653,80.580206 C52.434728,77.4929252 56.2880472,74.8735713 59.1508634,72.7221441 C59.8328203,72.188604 60.6848281,71.3822505 61.7086399,70.3082636 C62.7306986,69.2342766 63.2426045,68.5626031 63.2426045,68.2932431 C63.6493243,66.2782226 63.2741604,64.1319754 62.1153597,61.8458682 C60.9565589,59.564941 59.3857792,57.4497739 57.4135389,55.5038201 C55.4325332,53.5578663 53.2516737,51.9088992 50.8674544,50.5672789 C48.481482,49.2273852 46.3339315,48.5522584 44.4248029,48.5522584 C42.2439435,48.5522584 40.3365681,49.1583186 38.6991704,50.3669855 C37.0635258,51.5739258 35.492746,52.8827394 33.9955965,54.2916998 C32.4949409,55.7041134 30.9259142,57.0129271 29.2920227,58.221594 C27.6563781,59.4319877 25.8138675,60.0345945 23.76975,60.0345945 C19.54302,59.632281 18.5858261,58.0886407 20.9069337,55.4019467 C23.3612771,52.5822994 25.2002816,50.3669855 26.4274533,48.7525518 C28.7450547,47.1432981 31.5061911,45.0971976 34.7126154,42.6125237 C37.9120274,40.1278498 41.3586268,37.7450492 45.0383888,35.458942 C48.7199039,33.1797415 52.4680369,31.1975277 56.2880472,29.5192073 C60.101045,27.8408869 63.7860663,27 67.3308394,27 C71.0141076,27 74.3520147,27.7735468 77.351573,29.3171872 C80.3493781,30.8608276 83.1105145,32.8758481 85.634982,35.3587953 C88.1559433,37.8469226 90.4419889,40.6303099 92.4878594,43.7175906 C94.5302238,46.8083247 96.3709813,49.9629454 98.0066259,53.1866328 C98.5500877,53.9929864 99.5738995,55.8387935 101.076308,58.7275075 C102.573458,61.6144948 104.312535,65.0039423 106.290035,68.8958499 C108.265781,72.7929375 110.344961,76.9231251 112.529327,81.2864128 C114.70668,85.6497005 116.75255,89.7816148 118.663432,93.6717957 C120.569054,97.5671567 122.241514,100.960057 123.673799,103.847045 C125.10433,106.732305 126.09308,108.647179 126.638295,109.583033 C127.591983,111.199193 128.408928,112.4752 129.094391,113.41278 C129.772842,114.353814 130.454799,115.294848 131.138509,116.230701 C131.818713,117.173461 132.363928,117.841681 132.774153,118.249175 C133.45611,119.185028 134.308118,119.725475 135.33193,119.860155 C136.353989,119.993109 137.340985,120.060449 138.298179,120.060449 C139.386856,120.060449 140.373853,120.193402 141.262675,120.462762 C142.147992,120.735575 142.724763,121.403796 143,122.479509 C139.045001,128.118804 134.339674,132.445832 128.889278,135.467499 C123.431871,138.48744 117.438013,140 110.891929,140 C107.892371,140 105.504645,138.960546 103.734012,136.876459 C101.959872,134.797552 100.361042,132.518352 98.9287578,130.028498 C97.4982262,127.547277 95.9625085,125.262897 94.3251108,123.183989 C92.6912193,121.099902 90.5752247,120.060449 87.9858924,120.060449 C83.8976575,120.060449 79.8374722,121.001482 75.8176083,122.880096 Z" id="Fill-8" fill="#FFD500"></path>
            </g>
        </g>
    </g>
</svg>