<?xml version="1.0" encoding="UTF-8"?>
<svg width="145px" height="150px" viewBox="0 0 145 150" version="1.1" xmlns="http://www.w3.org/2000/svg" xmlns:xlink="http://www.w3.org/1999/xlink">
    <!-- Generator: Sketch 61.2 (89653) - https://sketch.com -->
    <title>lettrine E</title>
    <desc>Created with Sketch.</desc>
    <g id="Page-1" stroke="none" stroke-width="1" fill="none" fill-rule="evenodd">
        <g id="COMPORTEMENTS" transform="translate(-853.000000, -1446.000000)">
            <g id="lettrine-E" transform="translate(854.000000, 1447.000000)">
                <polygon id="Stroke-1" stroke="#FFD500" stroke-width="0.5" points="12.4345714 148.531915 50.8742449 148.531915 50.8742449 31.2015957 12.4345714 31.2015957"></polygon>
                <polygon id="Stroke-3" stroke="#FFD500" stroke-width="0.5" points="51.4266122 148.531915 89.8662857 148.531915 89.8662857 0 51.4266122 0"></polygon>
                <polygon id="Stroke-5" stroke="#FFD500" stroke-width="0.5" points="90 131.705851 129 131.705851 129 12.7058511 90 12.7058511"></polygon>
                <polygon id="Stroke-6" stroke="#FFD500" stroke-width="0.5" points="-1.42108547e-14 59.4072072 143.152 59.4072072 143.152 20.7058511 -1.42108547e-14 20.7058511"></polygon>
                <polygon id="Stroke-8" stroke="#FFD500" stroke-width="0.5" points="-1.42108547e-14 98.4072072 143.152 98.4072072 143.152 59.7058511 -1.42108547e-14 59.7058511"></polygon>
                <polygon id="Stroke-9" stroke="#FFD500" stroke-width="0.5" points="-1.42108547e-14 137.407207 143.152 137.407207 143.152 98.7058511 -1.42108547e-14 98.7058511"></polygon>
                <path d="M38.1088,69.583162 C38.4688,71.9984908 38.8592,73.8672853 39.2848,75.1959565 C39.7056,76.5278333 40.1872,77.7635456 40.7312,78.9111072 C41.2736,80.0586689 41.9072,80.6340524 42.6288,80.6340524 C42.7472,80.6340524 42.9024,80.6003949 43.0816,80.5410935 C43.2624,80.4801894 43.4112,80.4465319 43.5344,80.4465319 C47.1488,78.0360113 50.9472,75.7681346 54.9264,73.6589291 C58.904,71.5449154 62.8816,69.3427511 66.8592,67.046025 C70.8384,64.7509017 74.6944,62.3676278 78.4336,59.8929976 C82.168,57.4167648 85.6032,54.607162 88.7408,51.4657922 C88.7408,51.3503949 88.768,51.0763264 88.8304,50.6499976 C88.8896,50.2300798 88.92,49.9015182 88.92,49.656299 C88.92,47.4813812 87.7744,45.8850524 85.4848,44.8576963 C83.1936,43.8303401 80.5408,43.1075045 77.528,42.6827785 C74.5136,42.2612579 71.472,42.0817511 68.3968,42.1410524 C65.3232,42.2019565 63.0624,42.2292031 61.616,42.2292031 L59.4464,42.2292031 C58.4784,42.2292031 57.3952,42.2612579 56.192,42.322162 C54.984,42.3814634 53.8416,42.4103127 52.7552,42.4103127 L50.7664,42.4103127 C48.352,43.2565593 46.3648,44.7374908 44.8,46.8466963 C43.232,48.9623127 41.9344,51.3503949 40.9104,54.0013264 C39.8848,56.6618744 39.1616,59.3785182 38.7424,62.1544634 C38.3168,64.9368196 38.1088,67.4082442 38.1088,69.583162 M12.7936,84.9774771 C12.7936,76.5278333 14.9616,68.5830524 19.3024,61.1607648 C23.6416,53.7320661 29.216,47.273025 36.0304,41.7756278 C42.84,36.2830387 50.3424,31.9652579 58.5424,28.8270935 C66.7392,25.6857237 74.7536,24.1166415 82.5904,24.1166415 C85.2416,24.1166415 88.376,24.2705045 91.9936,24.5702168 C95.6112,24.8715319 99.1664,25.5382716 102.664,26.5608196 C106.1584,27.5881757 109.2928,29.0691072 112.0672,30.9988059 C114.8384,32.9333127 116.704,35.5281483 117.672,38.7865182 C116.104,40.961436 113.632,43.2886141 110.2576,45.7600387 C106.88,48.2410798 103.4464,50.5906963 99.952,52.8265182 C96.4512,55.0607374 93.3792,57.1170524 90.728,58.985847 C88.0768,60.8594497 86.7504,62.2746689 86.7504,63.2427237 C86.7504,63.3629291 86.7776,63.5119839 86.8416,63.696299 C86.9008,63.8758059 86.9312,64.0296689 86.9312,64.1450661 C89.9424,64.7509017 93.32,65.2653812 97.0576,65.685299 C100.792,66.1116278 104.5616,66.4449976 108.3584,66.6806004 C112.1568,66.9258196 115.8016,67.1357785 119.2992,67.3152853 C122.7952,67.4996004 125.8672,67.6534634 128.5216,67.7688607 C128.5216,67.8922716 128.5488,68.0413264 128.6112,68.2208333 C128.672,68.4035456 128.7024,68.5542031 128.7024,68.6760113 C128.7024,70.7307237 127.7664,72.5113675 125.8992,74.0211483 C124.0288,75.5293264 121.7104,76.8563949 118.9376,78.0039565 C116.1648,79.1531209 113.12,80.119573 109.8048,80.90171 C106.488,81.6886552 103.3568,82.3217374 100.4048,82.8025593 C97.448,83.2897922 94.888,83.6183538 92.7168,83.8026689 C90.5472,83.9821757 89.2192,84.0703264 88.7408,84.0703264 C84.2784,84.0703264 79.8784,83.7433675 75.5392,83.0766278 C71.2,82.4146963 66.7984,82.0813264 62.3392,82.0813264 L57.096,82.0813264 C54.6816,82.0813264 52.4528,82.4146963 50.4048,83.0766278 C48.352,83.7433675 46.0656,85.2787922 43.5344,87.6941209 C43.5344,87.8143264 43.5024,87.9681894 43.4416,88.1476963 C43.3792,88.3272031 43.352,88.4810661 43.352,88.6012716 C43.352,88.7214771 43.4112,89.0276004 43.5344,89.5084223 C47.6304,97.8378607 53.2688,103.875381 60.44,107.619381 C67.6112,111.363381 75.5392,113.233778 84.2192,113.233778 L86.208,113.233778 C87.1712,113.233778 88.1664,113.206532 89.192,113.145628 C90.216,113.086326 91.2096,113.052669 92.1744,113.052669 L94.1648,113.052669 C96.0912,112.451641 97.9008,111.512436 99.5888,110.244669 C101.2752,108.976902 102.9632,107.741189 104.6512,106.534326 C106.3376,105.325861 108.0896,104.271258 109.8976,103.362504 C111.704,102.456957 113.8128,102.003381 116.2256,102.003381 C116.2256,105.510176 115.0784,108.64834 112.7888,111.424285 C110.4976,114.201833 107.5136,116.583504 103.8384,118.577313 C100.16,120.572724 96.0912,122.262011 91.6336,123.649984 C87.1712,125.039559 82.7408,126.185518 78.3424,127.092669 C73.9408,127.995011 69.8432,128.629696 66.0448,128.995121 C62.248,129.355737 59.2016,129.536847 56.9152,129.536847 C50.8848,129.536847 45.2208,128.362039 39.9168,126.006011 C34.6112,123.649984 29.9424,120.420463 25.904,116.315847 C21.8624,112.211231 18.6704,107.468724 16.3184,102.094737 C13.9696,96.7239565 12.7936,91.0166004 12.7936,84.9774771" id="Fill-10" fill="#FFD500"></path>
            </g>
        </g>
    </g>
</svg>