<?xml version="1.0" encoding="UTF-8"?>
<svg width="47px" height="47px" viewBox="0 0 47 47" version="1.1" xmlns="http://www.w3.org/2000/svg" xmlns:xlink="http://www.w3.org/1999/xlink">
    <!-- Generator: Sketch 61.2 (89653) - https://sketch.com -->
    <title>pic_edit03</title>
    <desc>Created with Sketch.</desc>
    <defs>
        <polygon id="path-1" points="8.18181818e-05 0.409672831 35.3454545 0.409672831 35.3454545 29.9057889 8.18181818e-05 29.9057889"></polygon>
    </defs>
    <g id="Page-1" stroke="none" stroke-width="1" fill="none" fill-rule="evenodd">
        <g id="COMPORTEMENTS" transform="translate(-177.000000, -2822.000000)">
            <g id="pic_edit03" transform="translate(177.000000, 2822.000000)">
                <rect id="Rectangle" fill="#F2F2F2" x="0" y="0" width="47" height="47" rx="4"></rect>
                <g id="Group-2" transform="translate(6.000000, 8.000000)">
                    <g id="Group-3">
                        <mask id="mask-2" fill="white">
                            <use xlink:href="#path-1"></use>
                        </mask>
                        <g id="Clip-2"></g>
                        <path d="M16.5375817,0.409345092 C7.40444116,0.409345092 8.18181818e-05,5.90208475 8.18181818e-05,12.6767704 C8.18181818e-05,16.169153 1.97692556,19.3126807 5.13359742,21.5468855 L3.0625818,28.0110519 L9.87664427,23.9006978 C11.9155036,24.567739 14.1656755,24.9441956 16.5375817,24.9441956 C25.6707223,24.9441956 33.0750817,19.4522227 33.0750817,12.6767704 C33.0750817,5.90208475 25.6707223,0.409345092 16.5375817,0.409345092" id="Fill-1" fill="#9B9B9B" mask="url(#mask-2)"></path>
                    </g>
                    <g id="Group" transform="translate(19.894737, 18.000000)">
                        <path d="M0,6.15738995 C0,2.75714575 2.75714575,0 6.15839952,0 C9.55864372,0 12.3157895,2.75714575 12.3157895,6.15738995 C12.3157895,9.55864372 9.55864372,12.3157895 6.15839952,12.3157895 C2.75714575,12.3157895 0,9.55864372 0,6.15738995 Z" id="Stroke-6" stroke="#9B9B9B" stroke-width="2" fill="#FFFFFF"></path>
                        <polygon id="Fill-8" fill="#9B9B9B" points="9.85263158 5.23453025 7.08125922 5.23453025 7.08125922 2.46315789 5.23453025 2.46315789 5.23453025 5.23453025 2.46315789 5.23453025 2.46315789 7.08125922 5.23453025 7.08125922 5.23453025 9.85263158 7.08125922 9.85263158 7.08125922 7.08125922 9.85263158 7.08125922"></polygon>
                    </g>
                </g>
            </g>
        </g>
    </g>
</svg>