<?xml version="1.0" encoding="UTF-8"?>
<svg width="47px" height="47px" viewBox="0 0 47 47" version="1.1" xmlns="http://www.w3.org/2000/svg" xmlns:xlink="http://www.w3.org/1999/xlink">
    <!-- Generator: Sketch 61.2 (89653) - https://sketch.com -->
    <title>pic_edit02 sel</title>
    <desc>Created with Sketch.</desc>
    <g id="Page-1" stroke="none" stroke-width="1" fill="none" fill-rule="evenodd">
        <g id="COMPORTEMENTS" transform="translate(-1154.000000, -2822.000000)">
            <g id="pic_edit02-sel" transform="translate(1154.000000, 2822.000000)">
                <rect id="Rectangle-Copy-48" fill="#FFE76E" x="0" y="0" width="47" height="47" rx="4"></rect>
                <path d="M14.5282332,33 L16,34.1281083 C16.0092233,34.1255933 10.8614784,38.8395838 10.3592374,39.2994913 L10.3199425,39.3354737 L7,40 L14.5375006,33.0101353 L14.5282332,33 Z M26.518673,15.4145707 C33.0002258,7.59796199 36.8938555,6.86218994 39.2796732,9.10462975 C41.997901,11.6590771 42.3702002,15.7731057 33.7949074,24.3856985 C25.5888113,32.6269841 19.2730204,33.3435978 16.4914131,34 C16.4816624,34.0022803 24.9674261,26.2481642 27.6049891,23.4004116 C31.3665412,19.3383843 36.5202266,12.3820769 36.5202266,12.3820769 C36.5202266,12.3820769 27.4977314,22.2281028 26.2602796,23.4733958 C22.8993924,26.8562139 15,32.8646389 15,32.8646389 C15.9515792,30.3257007 20.4985054,22.6751311 26.518673,15.4145707 Z" id="Combined-Shape-Copy-2" fill="#F5A623"></path>
            </g>
        </g>
    </g>
</svg>