<?xml version="1.0" encoding="UTF-8"?>
<svg width="47px" height="47px" viewBox="0 0 47 47" version="1.1" xmlns="http://www.w3.org/2000/svg" xmlns:xlink="http://www.w3.org/1999/xlink">
    <!-- Generator: Sketch 61.2 (89653) - https://sketch.com -->
    <title>pic_semant03 sel</title>
    <desc>Created with Sketch.</desc>
    <g id="Page-1" stroke="none" stroke-width="1" fill="none" fill-rule="evenodd">
        <g id="COMPORTEMENTS" transform="translate(-1226.000000, -2944.000000)">
            <g id="pic_semant03-sel" transform="translate(1226.000000, 2944.000000)">
                <rect id="Rectangle-Copy-52" fill="#FFE76E" x="0" y="0" width="47" height="47" rx="4"></rect>
                <path d="M18.0319725,24.3310054 C18.0319725,21.1139122 20.7048697,18.506707 24,18.506707 C27.296483,18.506707 29.9680275,21.1139122 29.9680275,24.3310054 L18.0319725,24.3310054 Z M24,11.1986118 C25.8098869,11.1986118 27.2775455,12.6296044 27.2775455,14.3959034 C27.2775455,16.1622024 25.8098869,17.5931951 24,17.5931951 C22.1901131,17.5931951 20.7238072,16.1622024 20.7238072,14.3959034 C20.7238072,12.6296044 22.1901131,11.1986118 24,11.1986118 L24,11.1986118 Z M24,8 C17.9251107,8 13,12.8064983 13,18.735085 C13,24.6636716 24,39 24,39 C24,39 35,24.6636716 35,18.735085 C35,12.8064983 30.0748893,8 24,8 L24,8 Z" id="Fill-1-Copy-8" fill="#F5A623"></path>
            </g>
        </g>
    </g>
</svg>