<?xml version="1.0" encoding="UTF-8"?>
<svg width="47px" height="47px" viewBox="0 0 47 47" version="1.1" xmlns="http://www.w3.org/2000/svg" xmlns:xlink="http://www.w3.org/1999/xlink">
    <!-- Generator: Sketch 61.2 (89653) - https://sketch.com -->
    <title>pic_edit05 over</title>
    <desc>Created with Sketch.</desc>
    <g id="Page-1" stroke="none" stroke-width="1" fill="none" fill-rule="evenodd">
        <g id="COMPORTEMENTS" transform="translate(-849.000000, -2822.000000)">
            <g id="pic_edit05-over" transform="translate(849.000000, 2822.000000)">
                <g id="Group-23">
                    <rect id="Rectangle-Copy" fill="#E9E9E9" x="0" y="0" width="47" height="47" rx="4"></rect>
                    <g id="Group-2" transform="translate(5.400000, 14.999979)" fill="#9B9B9B">
                        <path d="M3.60001431,9.44118854 C3.59890853,9.77491823 3.6823,10.0802307 3.85057209,10.3588586 C4.01847189,10.6371399 4.24146962,10.8741816 4.51993758,11.0692904 C4.79766098,11.2647458 5.10069964,11.4182684 5.42905357,11.5305513 C5.75666293,11.6424877 6.08948426,11.6989756 6.42826213,11.7000186 C6.62668917,11.7003619 6.87574674,11.6733308 7.17469028,11.6189221 C7.47326155,11.5641669 7.75731376,11.4771823 8.02610235,11.3572753 C8.29526322,11.2380613 8.52421749,11.0904301 8.7144543,10.9147282 C8.90357425,10.7393728 8.99925107,10.5314415 9.00001431,10.2902412 C9.00036792,10.2535067 8.99515596,10.2029101 8.98584887,10.1377583 C8.97579722,10.0729531 8.97095754,10.0310203 8.97095754,10.0123064 L7.4877806,7.2291463 C7.22904366,7.21043249 7.07007866,7.2000186 7.01051332,7.2000186 C6.67173545,7.19899627 6.30875917,7.24474115 5.92046762,7.33623091 C5.53180378,7.42772067 5.16324324,7.56599497 4.81478601,7.74932105 C4.46558421,7.93368678 4.17632003,8.16934223 3.9466212,8.45524773 C3.71655007,8.74219289 3.60114223,9.07072431 3.60001431,9.44118854 M9.69294019,12.594284 C9.14234711,12.5922455 8.5951888,12.7179502 8.05318263,12.9703787 C7.51048951,13.2231469 6.9677964,13.4979984 6.42544675,13.7962922 C5.88275363,14.0939064 5.3359388,14.3650207 4.78431528,14.6079365 C4.23303525,14.851192 3.65427708,14.9721402 3.04804078,14.9704415 C2.71795971,14.9694223 2.36898743,14.9007943 2.00215436,14.762859 C1.63566477,14.6256031 1.3055837,14.4387448 1.01294159,14.201265 C0.719955999,13.9651441 0.477461479,13.6824785 0.285801504,13.3549669 C0.0941415295,13.0271156 -0.00134498127,12.6724247 1.4309088e-05,12.2912339 C0.0020897853,11.601557 0.233593052,10.9489121 0.694538726,10.3319401 C1.1554844,9.71632711 1.70332967,9.15031647 2.33841801,8.63492743 C2.97350635,8.11919865 3.61786856,7.65375172 4.27081768,7.23790717 C4.92376681,6.82240236 5.44344699,6.46974987 5.83020171,6.18028945 C5.92225345,6.10826409 6.03697465,5.99954656 6.17539575,5.8544766 C6.31347336,5.70974639 6.38285565,5.6190352 6.38285565,5.58268278 C6.43849887,5.31054921 6.38903823,5.02006956 6.23413026,4.71090408 C6.07887881,4.40139886 5.86832762,4.11499612 5.60350711,3.85033688 C5.33765618,3.58669687 5.04467059,3.36314645 4.72420687,3.18070485 C4.40339967,2.9979235 4.1145358,2.90619308 3.85727179,2.90517386 C3.56359924,2.90449437 3.30667871,2.98535304 3.08547974,3.14842933 C2.86496772,3.3104864 2.65269915,3.48715239 2.45073488,3.67740806 C2.24774017,3.867324 2.03615855,4.04398998 1.81530306,4.20672654 C1.59479105,4.36980283 1.34645742,4.45032175 1.07098914,4.44930253 C0.501848322,4.39324505 0.373731529,4.18430355 0.687325717,3.82179853 C1.01946764,3.44128718 1.26780127,3.14265371 1.43404397,2.92521865 C1.74660773,2.70812333 2.1192799,2.43259234 2.55206049,2.0979462 C2.98415412,1.76363979 3.44922152,1.44258334 3.94588876,1.13477683 C4.44221253,0.82798955 4.94815365,0.561971344 5.46302516,0.336382469 C5.97755319,0.110453852 6.47353349,-0.00166110079 6.95130952,1.85951896e-05 C7.44694633,0.00139657974 7.89655728,0.107735914 8.2994554,0.317696644 C8.70269699,0.527657373 9.07365178,0.801489652 9.41266324,1.13817425 C9.75098775,1.47553834 10.0577124,1.85299201 10.3314633,2.2715545 C10.6055577,2.69011699 10.8521739,3.11751278 11.0709685,3.55442136 C11.1437856,3.66347863 11.2808328,3.91386869 11.4821101,4.30457231 C11.682357,4.69595542 11.9152342,5.15494724 12.1797112,5.68256701 C12.4438447,6.21018677 12.7224043,6.76940257 13.0143595,7.36021439 C13.3059712,7.9517057 13.579722,8.51126124 13.8352687,9.03820152 C14.0904718,9.56582128 14.3140751,10.0248131 14.5057351,10.4158565 C14.6970516,10.8068998 14.8292901,11.0664629 14.9024507,11.1931868 C15.030224,11.4119808 15.1394495,11.5849097 15.2315013,11.7119733 C15.3225226,11.8397164 15.4138874,11.9671197 15.5055957,12.0941833 C15.596617,12.2219264 15.6697775,12.3126376 15.7250772,12.3676759 C15.816442,12.4947395 15.9308198,12.5677841 16.0688974,12.5864699 C16.206288,12.6051557 16.3392135,12.6143288 16.4680173,12.6150083 C16.6146818,12.615348 16.7476073,12.6340338 16.8671371,12.6703862 C16.9859801,12.7077579 17.0636058,12.7984691 17.1000143,12.9438788 C16.5652212,13.7049015 15.9297893,14.288239 15.1947493,14.6945708 C14.4583353,15.1009025 13.6504782,15.3027094 12.7687737,15.3000186 C12.3648451,15.2989723 12.0440379,15.1576395 11.8063521,14.8749739 C11.5683227,14.5926481 11.3539933,14.2838223 11.1623333,13.9464583 C10.9706734,13.6104531 10.7645874,13.3009479 10.5454493,13.0193016 C10.3259677,12.736636 10.041569,12.5953032 9.69294019,12.594284" id="Fill-1"></path>
                        <path d="M32.2179037,11.822101 C32.9393108,11.3039333 33.3000143,10.6465664 33.3000143,9.85000009 L33.3000143,8.21124482 C33.3000143,8.13731601 33.2630788,8.1000186 33.1892078,8.1000186 L30.5804295,8.1000186 C29.4883363,8.1000186 28.6188544,8.31314669 27.9713184,8.73906988 C27.3234496,9.16499306 27.0000143,9.75742258 27.0000143,10.5166914 C27.0000143,11.2020315 27.24492,11.7205322 27.735397,12.0718605 C28.2252084,12.4241879 28.8687514,12.6000186 29.6643623,12.6000186 C30.6449834,12.6000186 31.4964966,12.3409348 32.2179037,11.822101 M33.3609191,1.45309007 C34.2082551,1.8214961 34.8594083,2.33603138 35.3157176,2.99577105 C35.7716922,3.65581901 36.0000143,4.40588752 36.0000143,5.24536 L36.0000143,13.9369677 C36.0000143,14.1083767 35.9066098,14.1943895 35.7208052,14.1943895 L33.5986151,14.1943895 C33.4121409,14.1943895 33.3190712,14.1083767 33.3190712,13.9369677 L33.3190712,13.0111741 C33.3190712,12.9260862 33.2725363,12.9085137 33.1794666,12.959998 C32.6953703,13.423049 32.1048129,13.7788151 31.4064553,14.0269882 C30.7084325,14.2754696 29.9307314,14.4000186 29.074691,14.4000186 C27.6967237,14.4000186 26.5567872,14.0784726 25.654212,13.4356888 C24.7509672,12.7929051 24.3000143,11.8202515 24.3000143,10.5171115 C24.3000143,9.17975141 24.8068759,8.13002545 25.8216035,7.36700878 C26.8363311,6.60460868 28.2554767,6.2229462 30.0800446,6.2229462 L33.2075884,6.2229462 C33.2819103,6.2229462 33.3190712,6.18841777 33.3190712,6.1196692 L33.3190712,5.4254011 C33.3190712,4.67132483 33.0820448,4.08464979 32.6073223,3.66445111 C32.1325999,3.24425244 31.4108075,3.03430725 30.4432843,3.03430725 C29.661231,3.03430725 29.0234692,3.17581216 28.5303336,3.45851369 C28.0368633,3.7415235 27.7345542,4.1228777 27.6227366,4.60288455 C27.5668279,4.77429354 27.4553451,4.85136593 27.2876187,4.83410172 L25.0258241,4.55140019 C24.8396847,4.51718005 24.7556541,4.44873976 24.774402,4.34577105 C24.9233805,3.33427299 25.5099205,2.50713209 26.5336872,1.86434835 C27.5574539,1.22156461 28.8416819,0.900018595 30.3873755,0.900018595 C31.522625,0.900018595 32.5139178,1.08406746 33.3609191,1.45309007" id="Fill-3"></path>
                        <polygon id="Fill-5" points="19.0795058 10.8000186 18.000777 9.75669004 20.6428109 7.2005105 18.0000143 4.64334715 19.0787431 3.6000186 22.8000143 7.2005105"></polygon>
                    </g>
                </g>
            </g>
        </g>
    </g>
</svg>