<?xml version="1.0" encoding="UTF-8"?>
<svg width="47px" height="47px" viewBox="0 0 47 47" version="1.1" xmlns="http://www.w3.org/2000/svg" xmlns:xlink="http://www.w3.org/1999/xlink">
    <!-- Generator: Sketch 63.1 (92452) - https://sketch.com -->
    <title>Group 40</title>
    <desc>Created with Sketch.</desc>
    <g id="Page-1" stroke="none" stroke-width="1" fill="none" fill-rule="evenodd">
        <g id="COMPORTEMENTS" transform="translate(-586.000000, -3041.000000)">
            <g id="Group-40" transform="translate(586.000000, 3041.000000)">
                <rect id="Rectangle-Copy-60" fill="#E9E9E9" x="0" y="0" width="47" height="47" rx="4"></rect>
                <g id="Group-31-Copy" transform="translate(11.000000, 13.000000)">
                    <path d="M20.2905642,13.3851809 C16.391567,12.2015864 14.3666787,9.69446057 14.3666787,6.33778294 L14.3666787,5.76991036 C15.075148,6.57432127 15.8851033,6.95169923 16.9482904,6.95169923 C19.4303492,6.95169923 21,5.48642549 21,3.40452699 C21,1.41923003 19.4303492,0 17.251782,0 C14.5686843,0 13,1.84445734 13,5.20294061 C13,9.69446057 15.5303854,12.8651577 19.9870726,14 L20.2905642,13.3851809 Z M11.2879377,13.3851809 C7.36381323,12.2015864 5.32490272,9.69446057 5.32490272,6.33778294 L5.32490272,5.76991036 C6.03891051,6.57432127 6.90564202,6.95169923 7.97470817,6.95169923 C10.4727626,6.95169923 12,5.48642549 12,3.40452699 C12,1.41923003 10.4212062,0 8.22957198,0 C5.52821012,0 4,1.84445734 4,5.20294061 C4,9.69446057 6.49708171,12.8651577 10.9815175,14 L11.2879377,13.3851809 Z" id="Fill-1" fill="#9B9B9B"></path>
                    <rect id="Rectangle-Copy-54" fill="#C5C5C5" x="0" y="18" width="26" height="3"></rect>
                </g>
            </g>
        </g>
    </g>
</svg>