<?xml version="1.0" encoding="UTF-8"?>
<svg width="47px" height="47px" viewBox="0 0 47 47" version="1.1" xmlns="http://www.w3.org/2000/svg" xmlns:xlink="http://www.w3.org/1999/xlink">
    <!-- Generator: Sketch 61.2 (89653) - https://sketch.com -->
    <title>pic_semant03 over</title>
    <desc>Created with Sketch.</desc>
    <defs>
        <polygon id="path-1" points="13 8 35 8 35 39 13 39"></polygon>
    </defs>
    <g id="Page-1" stroke="none" stroke-width="1" fill="none" fill-rule="evenodd">
        <g id="COMPORTEMENTS" transform="translate(-747.000000, -2944.000000)">
            <g id="pic_semant03-over" transform="translate(747.000000, 2944.000000)">
                <path d="M17.0319725,25.3310054 C17.0319725,22.1139122 19.7048697,19.506707 23,19.506707 C26.296483,19.506707 28.9680275,22.1139122 28.9680275,25.3310054 L17.0319725,25.3310054 Z M23,12.1986118 C24.8098869,12.1986118 26.2775455,13.6296044 26.2775455,15.3959034 C26.2775455,17.1622024 24.8098869,18.5931951 23,18.5931951 C21.1901131,18.5931951 19.7238072,17.1622024 19.7238072,15.3959034 C19.7238072,13.6296044 21.1901131,12.1986118 23,12.1986118 L23,12.1986118 Z M23,9 C16.9251107,9 12,13.8064983 12,19.735085 C12,25.6636716 23,40 23,40 C23,40 34,25.6636716 34,19.735085 C34,13.8064983 29.0748893,9 23,9 L23,9 Z" id="Fill-1-Copy-2" fill="#9B9B9B"></path>
                <rect id="Rectangle-Copy-51" fill="#E9E9E9" x="0" y="0" width="47" height="47" rx="4"></rect>
                <mask id="mask-2" fill="white">
                    <use xlink:href="#path-1"></use>
                </mask>
                <g id="Clip-2-Copy-6"></g>
                <path d="M18.0319725,24.3310054 C18.0319725,21.1139122 20.7048697,18.506707 24,18.506707 C27.296483,18.506707 29.9680275,21.1139122 29.9680275,24.3310054 L18.0319725,24.3310054 Z M24,11.1986118 C25.8098869,11.1986118 27.2775455,12.6296044 27.2775455,14.3959034 C27.2775455,16.1622024 25.8098869,17.5931951 24,17.5931951 C22.1901131,17.5931951 20.7238072,16.1622024 20.7238072,14.3959034 C20.7238072,12.6296044 22.1901131,11.1986118 24,11.1986118 L24,11.1986118 Z M24,8 C17.9251107,8 13,12.8064983 13,18.735085 C13,24.6636716 24,39 24,39 C24,39 35,24.6636716 35,18.735085 C35,12.8064983 30.0748893,8 24,8 L24,8 Z" id="Fill-1-Copy-7" fill="#9B9B9B" mask="url(#mask-2)"></path>
            </g>
        </g>
    </g>
</svg>