<?xml version="1.0" encoding="UTF-8"?>
<svg width="47px" height="47px" viewBox="0 0 47 47" version="1.1" xmlns="http://www.w3.org/2000/svg" xmlns:xlink="http://www.w3.org/1999/xlink">
    <!-- Generator: Sketch 61.2 (89653) - https://sketch.com -->
    <title>pic_semant06sel</title>
    <desc>Created with Sketch.</desc>
    <g id="Page-1" stroke="none" stroke-width="1" fill="none" fill-rule="evenodd">
        <g id="COMPORTEMENTS" transform="translate(-1417.000000, -2944.000000)">
            <g id="pic_semant06sel" transform="translate(1417.000000, 2944.000000)">
                <rect id="Rectangle-Copy-49" fill="#FFE76E" x="0" y="0" width="47" height="47" rx="4"></rect>
                <path d="M33.6932682,31.224253 C29.0067286,29.7011857 26.5728415,26.4749783 26.5728415,22.1555548 L26.5728415,21.4248078 C27.4244115,22.4599359 28.3979664,22.9455516 29.6759023,22.9455516 C32.6593018,22.9455516 34.546,21.0600152 34.546,18.3809968 C34.546,15.8262866 32.6593018,14 30.0406949,14 C26.8156493,14 24.9301129,16.3734756 24.9301129,20.6952226 C24.9301129,26.4749783 27.9716005,30.5550793 33.3284756,32.0154115 L33.6932682,31.224253 Z M21.7039055,31.224253 C17.0173659,29.7011857 14.582317,26.4749783 14.582317,22.1555548 L14.582317,21.4248078 C15.4350489,22.4599359 16.470177,22.9455516 17.7469511,22.9455516 C20.7303507,22.9455516 22.5543138,21.0600152 22.5543138,18.3809968 C22.5543138,15.8262866 20.6687774,14 18.0513323,14 C14.8251249,14 13,16.3734756 13,20.6952226 C13,26.4749783 15.9822378,30.5550793 21.3379511,32.0154115 L21.7039055,31.224253 Z" id="Fill-1-Copy-4" fill="#F5A623"></path>
            </g>
        </g>
    </g>
</svg>