<?xml version="1.0" encoding="UTF-8"?>
<svg width="47px" height="47px" viewBox="0 0 47 47" version="1.1" xmlns="http://www.w3.org/2000/svg" xmlns:xlink="http://www.w3.org/1999/xlink">
    <!-- Generator: Sketch 63.1 (92452) - https://sketch.com -->
    <title>Group 34</title>
    <desc>Created with Sketch.</desc>
    <g id="Page-1" stroke="none" stroke-width="1" fill="none" fill-rule="evenodd">
        <g id="COMPORTEMENTS" transform="translate(-646.000000, -3041.000000)">
            <g id="Group-34" transform="translate(646.000000, 3041.000000)">
                <rect id="Rectangle-Copy-61" fill="#FFE76E" x="0" y="0" width="47" height="47" rx="4"></rect>
                <path d="M31.2905642,26.3851809 C27.391567,25.2015864 25.3666787,22.6944606 25.3666787,19.3377829 L25.3666787,18.7699104 C26.075148,19.5743213 26.8851033,19.9516992 27.9482904,19.9516992 C30.4303492,19.9516992 32,18.4864255 32,16.404527 C32,14.41923 30.4303492,13 28.251782,13 C25.5686843,13 24,14.8444573 24,18.2029406 C24,22.6944606 26.5303854,25.8651577 30.9870726,27 L31.2905642,26.3851809 Z M22.2879377,26.3851809 C18.3638132,25.2015864 16.3249027,22.6944606 16.3249027,19.3377829 L16.3249027,18.7699104 C17.0389105,19.5743213 17.905642,19.9516992 18.9747082,19.9516992 C21.4727626,19.9516992 23,18.4864255 23,16.404527 C23,14.41923 21.4212062,13 19.229572,13 C16.5282101,13 15,14.8444573 15,18.2029406 C15,22.6944606 17.4970817,25.8651577 21.9815175,27 L22.2879377,26.3851809 Z" id="Fill-1" fill="#F5A623"></path>
                <rect id="Rectangle-Copy-54" fill="#FFC360" x="11" y="31" width="26" height="3"></rect>
            </g>
        </g>
    </g>
</svg>