<?xml version="1.0" encoding="UTF-8"?>
<svg width="47px" height="47px" viewBox="0 0 47 47" version="1.1" xmlns="http://www.w3.org/2000/svg" xmlns:xlink="http://www.w3.org/1999/xlink">
    <!-- Generator: Sketch 61.2 (89653) - https://sketch.com -->
    <title>pic_semant05</title>
    <desc>Created with Sketch.</desc>
    <defs>
        <polygon id="path-1" points="13.0053339 0.000525023873 27.73175 0.000525023873 27.73175 14.727625 13.0053339 14.727625"></polygon>
    </defs>
    <g id="Page-1" stroke="none" stroke-width="1" fill="none" fill-rule="evenodd">
        <g id="COMPORTEMENTS" transform="translate(-318.000000, -2944.000000)">
            <g id="pic_semant05" transform="translate(318.000000, 2944.000000)">
                <rect id="Rectangle-Copy-14" fill="#F2F2F2" x="0" y="0" width="47" height="47" rx="4"></rect>
                <g id="Group-8" transform="translate(10.000000, 10.000000)">
                    <g id="Group-22" transform="translate(0.000250, -0.000225)">
                        <path d="M5.03075,27.732525 C3.74175,27.732525 2.45275,27.242525 1.47075,26.260525 C-0.49025,24.297525 -0.49025,21.104525 1.47075,19.142525 L6.13775,14.475525 C7.19975,13.412525 8.67375,12.885525 10.17875,13.029525 L9.98975,15.019525 C9.08675,14.940525 8.19175,15.250525 7.55175,15.889525 L2.88475,20.556525 C1.70275,21.739525 1.70275,23.664525 2.88475,24.846525 C4.06875,26.030525 5.99175,26.029525 7.17575,24.846525 L11.84275,20.179525 C12.43075,19.590525 12.75275,18.769525 12.72375,17.926525 L14.72175,17.858525 C14.76975,19.253525 14.23575,20.614525 13.25675,21.593525 L8.58975,26.260525 C7.60775,27.242525 6.31875,27.732525 5.03075,27.732525" id="Fill-1" fill="#9B9B9B"></path>
                        <mask id="mask-2" fill="white">
                            <use xlink:href="#path-1"></use>
                        </mask>
                        <g id="Clip-4"></g>
                        <path d="M18.03755,14.727625 C17.87555,14.727625 17.71355,14.719625 17.55155,14.704625 L17.74055,12.713625 C18.64855,12.791625 19.53855,12.483625 20.17855,11.843625 L24.84555,7.17662502 C26.02755,5.99462502 26.02755,4.06962502 24.84555,2.88662502 C23.66355,1.70662502 21.74055,1.70562502 20.55555,2.88662502 L15.88855,7.55362502 C15.29855,8.14362502 14.97655,8.96462502 15.00655,9.80562502 L13.00855,9.87562502 C12.95855,8.48262502 13.49355,7.12062502 14.47455,6.13962502 L19.14155,1.47262502 C21.10355,-0.491374976 24.29655,-0.490374976 26.25955,1.47262502 C28.22255,3.43562502 28.22255,6.62762502 26.25955,8.59062502 L21.59255,13.257625 C20.64255,14.206625 19.36855,14.727625 18.03755,14.727625" id="Fill-3" fill="#9B9B9B"></path>
                        <path d="M19.10205,10.962025 L10.57605,19.488025 C10.07705,19.987025 9.26005,19.987025 8.76105,19.488025 L8.24405,18.971025 C7.74505,18.472025 7.74505,17.655025 8.24405,17.156025 L16.76905,8.63002502 C17.26805,8.13102502 18.08505,8.13102502 18.58405,8.63002502 L19.10205,9.14802502 C19.60105,9.64702502 19.60105,10.463025 19.10205,10.962025" id="Fill-6" fill="#9B9B9B"></path>
                    </g>
                </g>
            </g>
        </g>
    </g>
</svg>