<svg xmlns="http://www.w3.org/2000/svg" version="1.1" xmlns:xlink="http://www.w3.org/1999/xlink" preserveAspectRatio="none" x="0px" y="0px" width="31px" height="31px" viewBox="0 0 31 31">
    <defs>
        <g id="Layer1_0_FILL">
            <path fill="#F5A623" stroke="none" d="
M 26.25 26.25
Q 30.7 21.8 30.7 15.5 30.7 9.2 26.25 4.75 21.8 0.3 15.5 0.3 9.2 0.3 4.75 4.75 0.3 9.2 0.3 15.5 0.3 21.8 4.75 26.25 9.2 30.7 15.5 30.7 21.8 30.7 26.25 26.25 Z"/>
        </g>

        <g id="Layer0_0_FILL">
            <path fill="#FFFFFF" stroke="none" d="
M 13.65 22.5
Q 13.65 23.35 14.2 23.9 14.8 24.5 15.65 24.5 16.5 24.5 17.05 23.9 17.65 23.35 17.65 22.5 17.65 21.65 17.05 21.05 16.5 20.5 15.65 20.5 14.8 20.5 14.2 21.05 13.65 21.65 13.65 22.5
M 18.15 6.15
L 13.15 6.15 13.65 18.15 17.65 18.15 18.15 6.15 Z"/>
        </g>
    </defs>

    <g transform="matrix( 1, 0, 0, 1, 0,0) ">
        <use xlink:href="#Layer1_0_FILL"/>
    </g>

    <g transform="matrix( 1, 0, 0, 1, 0,0) ">
        <use xlink:href="#Layer0_0_FILL"/>
    </g>
</svg>