<svg version="1.1"  xmlns="http://www.w3.org/2000/svg" xmlns:xlink="http://www.w3.org/1999/xlink" x="0px" y="0px"
	 viewBox="0 0 43 24" style="enable-background:new 0 0 43 24;" xml:space="preserve">
<line class="ql-stroke" x1="8.25" y1="3.748" x2="17.4134" y2="3.748"/>
<line class="ql-stroke" x1="8.25" y1="12.748" x2="17.4134" y2="12.748"/>
<line class="ql-stroke" x1="8.25" y1="21.748" x2="17.4134" y2="21.748"/>
<path class="ql-stroke" d="M0.8,18.36c0.2143-0.8002,1.0367-1.2752,1.8369-1.061c0.8002,0.2143,1.2752,1.0367,1.061,1.8369
	c-0.1755,0.6555-0.7693,1.1115-1.4479,1.112c0.8284-0.0004,1.5003,0.6709,1.5007,1.4993c0.0004,0.8284-0.6709,1.5003-1.4993,1.5007
	c-0.6746,0.0003-1.2665-0.4498-1.4464-1.1"/>
<path class="ql-stroke" d="M0.75,11.248c0-0.8284,0.6716-1.5,1.5-1.5l0,0c0.8284,0,1.5,0.6716,1.5,1.5l0,0
	c0.0002,0.4855-0.1649,0.9567-0.468,1.336L0.75,14.248h3"/>
<path class="ql-stroke" d="M0.75,0.748H1.5c0.4142,0,0.75,0.3358,0.75,0.75v5.25"/>
<line class="ql-stroke" x1="0.75" y1="6.748" x2="3.75" y2="6.748"/>
<line class="ql-stroke" x1="32.25" y1="3.748" x2="41.4134" y2="3.748"/>
<line class="ql-stroke" x1="32.25" y1="12.748" x2="41.4134" y2="12.748"/>
<line class="ql-stroke" x1="32.25" y1="21.748" x2="41.4134" y2="21.748"/>
<path class="ql-stroke" d="M24.8,18.36c0.2143-0.8002,1.0367-1.2752,1.837-1.061c0.8002,0.2143,1.2752,1.0367,1.061,1.8369
	c-0.1755,0.6555-0.7693,1.1115-1.4479,1.112c0.8284-0.0004,1.5003,0.6709,1.5007,1.4993c0.0004,0.8284-0.6709,1.5003-1.4993,1.5007
	c-0.6746,0.0003-1.2665-0.4498-1.4464-1.1"/>
<path class="ql-stroke" d="M24.75,11.248c0-0.8284,0.6716-1.5,1.5-1.5l0,0c0.8284,0,1.5,0.6716,1.5,1.5l0,0
	c0.0002,0.4855-0.1649,0.9567-0.468,1.336l-2.532,1.664h3"/>
<path class="ql-stroke" d="M24.75,0.748h0.75c0.4142,0,0.75,0.3358,0.75,0.75v5.25"/>
<line class="ql-stroke" x1="24.75" y1="6.748" x2="27.75" y2="6.748"/>
</svg>
