<?xml version="1.0" encoding="UTF-8"?>
<svg version="1.1" viewBox="0 0 24 24" xmlns="http://www.w3.org/2000/svg" xmlns:xlink="http://www.w3.org/1999/xlink">
    <!--Generated by IJSVG (https://github.com/iconjar/IJSVG)-->
    <g fill="#000">
        <path d="M2.617,17.658c-0.983,0.982 -1.81,4.8 -2.051,6l7.9972e-10,-3.91577e-09c-0.0167415,0.0819734 0.00880413,0.166875 0.068,0.226l-1.50776e-08,-1.49669e-08c0.0593142,0.0588788 0.144044,0.0843726 0.226,0.068c1.2,-0.241 5.016,-1.068 6,-2.051l3.0811e-08,-2.97582e-08c1.19176,-1.15104 1.22477,-3.05024 0.0737292,-4.242c-1.15104,-1.19176 -3.05024,-1.22477 -4.242,-0.0737292c-0.0250017,0.0241474 -0.0495818,0.0487276 -0.0737292,0.0737292Zm2.675,2.628l-6.34458e-09,6.34052e-09c-0.292987,0.292799 -0.767861,0.292647 -1.06066,-0.000339895c-0.292799,-0.292987 -0.292647,-0.767861 0.000339895,-1.06066c0.292854,-0.292667 0.767466,-0.292667 1.06032,1.2681e-08l-1.26892e-08,-1.2681e-08c0.292987,0.292799 0.293139,0.767673 0.000339895,1.06066c-0.000113256,0.000113328 -0.000226548,0.000226621 -0.000339876,0.000339876Z"></path>
        <path d="M22.56,1.955l-2.53165e-08,-2.52166e-08c-0.907315,-0.903732 -2.28941,-1.12932 -3.437,-0.561l2.63072e-08,4.68172e-08c-0.0289533,-0.0515262 -0.0624176,-0.100384 -0.1,-0.146l-0.352,-0.354l-3.42009e-08,-3.26274e-08c-1.18693,-1.13232 -3.05407,-1.13232 -4.241,6.52548e-08l-5.278,5.277l-4.21842e-09,4.21843e-09c-0.390741,0.390741 -0.390741,1.02426 8.43685e-09,1.415c0.390741,0.390741 1.02426,0.390741 1.415,-8.43685e-09l5.277,-5.278l-5.64724e-09,5.39263e-09c0.39535,-0.377525 1.01765,-0.377525 1.413,-1.4672e-08l0.354,0.354l-2.122,2.121l2.65405e-08,-2.65485e-08c-0.195191,0.19525 -0.195191,0.51175 -5.30811e-08,0.707l3.536,3.536l-3.07653e-08,-3.0756e-08c0.19525,0.195191 0.51175,0.195191 0.707,6.15119e-08l2.828,-2.826l1.21659e-07,-1.21524e-07c1.17222,-1.17092 1.17328,-3.07042 0.00235973,-4.24264c-0.000786219,-0.000787094 -0.00157288,-0.00157375 -0.00235997,-0.00235997Z"></path>
        <path d="M14.427,6.552l2.09286e-08,2.09223e-08c-0.19525,-0.195191 -0.51175,-0.195191 -0.707,-4.18445e-08l-6.952,6.954l7.96216e-08,-7.96456e-08c-0.585573,0.58575 -0.585573,1.53525 -1.59243e-07,2.121l2.121,2.121l-9.22958e-08,-9.22679e-08c0.58575,0.585573 1.53525,0.585573 2.121,1.84536e-07l6.953,-6.954l5.19876e-10,-5.21505e-10c0.194525,-0.195135 0.194525,-0.510865 -1.03975e-09,-0.706Z"></path>
    </g>
</svg>