<?xml version="1.0" encoding="UTF-8"?>
<svg version="1.1" viewBox="0 0 24 24" xmlns="http://www.w3.org/2000/svg" xmlns:xlink="http://www.w3.org/1999/xlink">
    <!--Generated by IJSVG (https://github.com/iconjar/IJSVG)-->
    <g fill="#000">
        <path d="M24,3.428v0c0,-1.08248 -0.877522,-1.96 -1.96,-1.96c0,0 0,0 0,0h-10.555l4.29196e-08,2.54632e-07c-0.118944,-0.705667 -0.72938,-1.22274 -1.445,-1.224h-3.918l-8.65334e-08,2.51433e-10c-0.715318,0.00207847 -1.3253,0.518766 -1.445,1.224l-1.81109e-08,1.00198e-07c-0.0146196,0.0808821 -0.022646,0.162818 -0.024,0.244999v9.306l-7.54775e-09,2.20685e-06c-0.000923056,0.270066 0.21726,0.489745 0.487326,0.490668c0.154976,0.000529693 0.30103,-0.0724357 0.393676,-0.196672l2.349,-3.135l-1.9499e-08,2.57083e-08c0.082103,-0.108248 0.236413,-0.129442 0.344661,-0.0473394c0.0178633,0.0135488 0.0337905,0.029476 0.0473393,0.0473393l2.353,3.135l1.20329e-08,1.55839e-08c0.128335,0.166209 0.346849,0.234519 0.547,0.171l-2.71694e-08,9.05962e-09c0.200119,-0.0667295 0.335069,-0.254048 0.335,-0.465v-7.341l3.55271e-15,3.7749e-08c-2.08482e-08,-0.138071 0.111929,-0.25 0.25,-0.25h9.78h-2.18557e-08c0.276142,-1.20706e-08 0.5,0.223858 0.5,0.5v17.612v0c0,0.276142 -0.223858,0.5 -0.5,0.5h-19.081h-2.18557e-08c-0.276142,-1.20706e-08 -0.5,-0.223858 -0.5,-0.5c0,0 0,0 0,0v-17.868l-6.97035e-10,-1.84065e-05c-2.01722e-08,-0.133595 0.107434,-0.242349 0.241018,-0.243982h-4.28372e-08c0.541239,2.36583e-08 0.98,-0.438761 0.98,-0.98c2.36583e-08,-0.541239 -0.438761,-0.98 -0.98,-0.98h-0.241018l-1.08519e-07,5.53726e-11c-1.08209,0.000552146 -1.959,0.877913 -1.959,1.96v18.612l-2.17849e-08,4.36283e-05c-0.000528189,1.08193 0.876118,1.95943 1.95804,1.95996c0.000333418,1.62773e-07 0.000666837,2.40425e-07 0.00100026,2.32956e-07h20.081l-4.34902e-08,-2.2208e-11c1.08193,0.00055245 1.95945,-0.876074 1.96,-1.958c3.40498e-07,-0.000666837 3.40513e-07,-0.00133367 4.46647e-11,-0.00200051Z"></path>
        <path d="M14.449,7.591h3.918l3.27967e-08,1.04805e-09c0.540963,0.017287 0.993514,-0.407236 1.0108,-0.948199c0.017287,-0.540963 -0.407236,-0.993514 -0.948199,-1.0108c-0.0208614,-0.000666647 -0.0417387,-0.000666665 -0.0626001,-5.62262e-08h-3.918l-1.66183e-09,-5.31051e-11c-0.540963,-0.017287 -0.993514,0.407236 -1.0108,0.948199c-0.017287,0.540963 0.407236,0.993514 0.948199,1.0108c0.0208614,0.000666647 0.0417387,0.000666667 0.0626001,5.82161e-08Z"></path>
        <path d="M14.449,11.509h3.918l3.27967e-08,1.04805e-09c0.540963,0.017287 0.993514,-0.407236 1.0108,-0.948199c0.017287,-0.540963 -0.407236,-0.993514 -0.948199,-1.0108c-0.0208614,-0.000666647 -0.0417387,-0.000666665 -0.0626001,-5.62262e-08h-3.918l-1.66185e-09,-5.3106e-11c-0.540963,-0.017287 -0.993514,0.407236 -1.0108,0.948199c-0.017287,0.540963 0.407236,0.993514 0.948199,1.0108c0.0208614,0.000666647 0.0417387,0.000666667 0.0626001,5.82161e-08Z"></path>
        <path d="M18.37,13.468h-12.248l-4.28372e-08,1.77636e-15c-0.541239,2.36583e-08 -0.98,0.438761 -0.98,0.98c2.36583e-08,0.541239 0.438761,0.98 0.98,0.98h12.248l4.55415e-08,-1.77636e-15c0.541239,-4.08624e-08 0.98,-0.438761 0.98,-0.98c-4.08624e-08,-0.541239 -0.438761,-0.98 -0.98,-0.98Z"></path>
        <path d="M17.387,18.366v0c0,-0.540687 -0.438313,-0.979 -0.979,-0.979h-10.286l3.27967e-08,-1.04805e-09c-0.540963,0.017287 -0.965486,0.469838 -0.948199,1.0108c0.0165111,0.516683 0.431518,0.931689 0.948201,0.948199h10.286l1.16684e-09,3.55271e-15c0.540687,2.81454e-07 0.979,-0.438313 0.979001,-0.978999c1.73614e-10,-0.000333523 -1.70088e-07,-0.000667045 -5.10785e-07,-0.00100057Z"></path>
    </g>
</svg>